<?xml version="1.0" encoding="UTF-8"?>
<svg width="20px" height="14px" viewBox="0 0 20 14" version="1.1" xmlns="http://www.w3.org/2000/svg"
     xmlns:xlink="http://www.w3.org/1999/xlink">
    <title>arrow-right</title>
    <g id="GOLD" stroke="none" stroke-width="1" fill="none" fill-rule="evenodd">
        <g id="0.desktop" transform="translate(-1004.000000, -555.000000)" style="fill: white">
            <g id="intro" transform="translate(130.645000, -119.000000)">
                <g id="hash" transform="translate(525.355000, 645.000000)">
                    <path d="M366.926703,35.0367227 L361.216666,29.3266855 C360.868283,28.9783019 360.303274,28.9783019 359.954891,29.3266855 C359.606436,29.6751405 359.606436,30.2400059 359.954891,30.588461 L364.141847,34.7754171 L348.892193,34.7754171 C348.399488,34.7754171 348,35.1749056 348,35.6676104 C348,36.1602439 348.399488,36.5598037 348.892193,36.5598037 L364.141847,36.5598037 L359.955033,40.7467599 C359.606578,41.0952149 359.606578,41.6600803 359.955033,42.0085353 C360.12919,42.1826201 360.357591,42.2698409 360.585921,42.2698409 C360.814251,42.2698409 361.042581,42.1826201 361.216809,42.0085353 L366.926703,36.2984981 C367.275158,35.9500431 367.275158,35.3851777 366.926703,35.0367227 Z"
                          id="arrow-right"></path>
                </g>
            </g>
        </g>
    </g>
</svg>
