<?xml version="1.0" encoding="UTF-8"?>
<svg width="41px" height="41px" viewBox="0 0 41 41" version="1.1" xmlns="http://www.w3.org/2000/svg" xmlns:xlink="http://www.w3.org/1999/xlink">
    <title>Group</title>
    <g id="GOLD" stroke="none" stroke-width="1" fill="none" fill-rule="evenodd">
        <g id="modal-imagen" transform="translate(-1203.000000, -36.000000)">
            <g id="Group" transform="translate(1203.000000, 36.000000)">
                <circle id="Oval" fill="#2F130D" opacity="0.800000012" cx="20.5" cy="20.5" r="20.5"></circle>
                <path d="M28.5628675,13.2084472 C28.1773139,12.8234314 27.5524761,12.8234314 27.1671636,13.2084472 L20.8857733,19.4850005 L14.6043831,13.2084472 C14.2255767,12.8166894 13.600739,12.805854 13.2086792,13.1843687 C12.8166194,13.5626426 12.8057758,14.1869991 13.1845821,14.578757 C13.1925342,14.5869437 13.2004862,14.5951304 13.2086792,14.6030763 L19.4900695,20.8796296 L13.2086792,27.1561829 C12.8166194,27.5344568 12.8057758,28.1588134 13.1845821,28.550812 C13.5631475,28.9425699 14.1879852,28.9534052 14.580045,28.5748906 C14.588238,28.5669447 14.596431,28.5589987 14.6043831,28.550812 L20.8857733,22.2742587 L27.1671636,28.550812 C27.5592234,28.9290859 28.1840611,28.9182505 28.5626264,28.5264927 C28.932035,28.1443663 28.932035,27.5383094 28.5626264,27.1561829 L22.2814772,20.8796296 L28.5628675,14.6030763 C28.94818,14.2180605 28.94818,13.5937039 28.5628675,13.2084472 L28.5628675,13.2084472 Z" id="cross" fill="#FFFFFF"></path>
            </g>
        </g>
    </g>
</svg>