<?xml version="1.0" encoding="UTF-8"?>
<svg width="26px" height="26px" viewBox="0 0 26 26" version="1.1" xmlns="http://www.w3.org/2000/svg" xmlns:xlink="http://www.w3.org/1999/xlink">
    <title>facebook</title>
    <g id="GOLD" stroke="none" stroke-width="1" fill="none" fill-rule="evenodd">
        <g id="0.desktop" transform="translate(-1052.000000, -5488.000000)" fill="#6A3534" fill-rule="nonzero">
            <g id="footer-share" transform="translate(1052.000000, 5488.000000)">
                <path d="M26,13 C26,5.81953125 20.1804687,0 13,0 C5.81953125,0 0,5.81953125 0,13 C0,20.1804687 5.81953125,26 13,26 C13.0761719,26 13.1523438,26 13.2285156,25.9949219 L13.2285156,15.8792969 L10.4355469,15.8792969 L10.4355469,12.6242187 L13.2285156,12.6242187 L13.2285156,10.2273437 C13.2285156,7.44960937 14.9246094,5.93632812 17.4027344,5.93632812 C18.5910156,5.93632812 19.6117187,6.02265625 19.90625,6.06328125 L19.90625,8.96796875 L18.2,8.96796875 C16.8542969,8.96796875 16.5902344,9.6078125 16.5902344,10.5472656 L16.5902344,12.6191406 L19.8148437,12.6191406 L19.3933594,15.8742187 L16.5902344,15.8742187 L16.5902344,25.4972656 C22.0238281,23.9382812 26,18.9363281 26,13 Z" id="facebook"></path>
            </g>
        </g>
    </g>
</svg>