<?xml version="1.0" encoding="UTF-8"?>
<svg width="21px" height="15px" viewBox="0 0 21 15" version="1.1" xmlns="http://www.w3.org/2000/svg" xmlns:xlink="http://www.w3.org/1999/xlink">
    <title>hamburguer-nav</title>
    <g id="GOLD" stroke="none" stroke-width="1" fill="none" fill-rule="evenodd">
        <g id="0.desktop" transform="translate(-1110.000000, -56.000000)" fill="#6A3534">
            <g id="header" transform="translate(126.000000, 13.000000)">
                <g id="nav" transform="translate(959.000000, 5.000000)">
                    <path d="M42.7583333,50.3333333 C43.421075,50.3333333 43.9583333,50.8705916 43.9583333,51.5333333 L43.9583333,51.55 C43.9583333,52.2127417 43.421075,52.75 42.7583333,52.75 L27.0333333,52.75 C26.3705916,52.75 25.8333333,52.2127417 25.8333333,51.55 L25.8333333,51.5333333 C25.8333333,50.8705916 26.3705916,50.3333333 27.0333333,50.3333333 L42.7583333,50.3333333 Z M37.925,44.2916667 C38.5877417,44.2916667 39.125,44.828925 39.125,45.4916667 L39.125,45.5083333 C39.125,46.171075 38.5877417,46.7083333 37.925,46.7083333 L27.0333333,46.7083333 C26.3705916,46.7083333 25.8333333,46.171075 25.8333333,45.5083333 L25.8333333,45.4916667 C25.8333333,44.828925 26.3705916,44.2916667 27.0333333,44.2916667 L37.925,44.2916667 Z M43.9666667,38.25 C44.6294084,38.25 45.1666667,38.7872583 45.1666667,39.45 L45.1666667,39.4666667 C45.1666667,40.1294084 44.6294084,40.6666667 43.9666667,40.6666667 L27.0333333,40.6666667 C26.3705916,40.6666667 25.8333333,40.1294084 25.8333333,39.4666667 L25.8333333,39.45 C25.8333333,38.7872583 26.3705916,38.25 27.0333333,38.25 L43.9666667,38.25 Z" id="hamburguer-nav"></path>
                </g>
            </g>
        </g>
    </g>
</svg>