<?xml version="1.0" encoding="UTF-8"?>
<svg width="28px" height="28px" viewBox="0 0 28 28" version="1.1" xmlns="http://www.w3.org/2000/svg" xmlns:xlink="http://www.w3.org/1999/xlink">
    <title>hash-icon</title>
    <g id="GOLD" stroke="none" stroke-width="1" fill="none" fill-rule="evenodd">
        <g id="0.desktop" transform="translate(-672.000000, -549.000000)" fill="#FFFFFF" fill-rule="nonzero">
            <g id="intro" transform="translate(130.645000, -119.000000)">
                <g id="hash" transform="translate(525.355000, 645.000000)">
                    <path d="M43.7666667,33.2050667 C43.9113393,33.1215403 44.0003297,32.9670531 43.9999991,32.8 L43.9999991,29.0666667 C44.0003297,28.8996136 43.9113393,28.7451264 43.7666667,28.6616 L40.4999991,26.7949333 C40.3565646,26.7130007 40.1805021,26.7130007 40.0370667,26.7949333 L36.7704,28.6616 C36.6242893,28.7441709 36.5337692,28.8988391 36.5333333,29.0666667 L36.5333333,30.1782667 L33.7333333,28.7782667 L33.7333333,25.3333333 C33.733663,25.1662803 33.6446727,25.011793 33.4999991,24.9282667 L30.2333333,23.0616 C30.0898979,22.9796673 29.9138354,22.9796673 29.7704,23.0616 L26.5037333,24.9282667 C26.3576226,25.0108375 26.2671025,25.1655058 26.2666667,25.3333333 L26.2666667,28.7782667 L23.4666667,30.1782667 L23.4666667,29.0666667 C23.4669963,28.8996136 23.378006,28.7451264 23.2333333,28.6616 L19.9666667,26.7949333 C19.8232312,26.7130007 19.6471688,26.7130007 19.5037333,26.7949333 L16.2370667,28.6616 C16.090956,28.7441709 16.0004359,28.8988391 15.9999991,29.0666667 L15.9999991,32.8 C15.9996703,32.9670531 16.0886607,33.1215403 16.2333333,33.2050667 L19.2666667,34.9373333 L19.2666667,39.0626667 L16.2333333,40.7949333 C16.0886607,40.8784597 15.9996703,41.0329469 15.9999991,41.2 L15.9999991,44.9333333 C15.9996703,45.1003864 16.0886607,45.2548736 16.2333333,45.3384 L19.4999991,47.2050667 C19.6434354,47.2869993 19.8194979,47.2869993 19.9629333,47.2050667 L22.9874,45.4784 L26.2666667,47.5256667 L26.2666667,48.6666667 C26.266337,48.8337197 26.3553273,48.988207 26.4999991,49.0717333 L29.7666667,50.9384 C29.9101021,51.0203327 30.0861646,51.0203327 30.2296,50.9384 L33.4962667,49.0717333 C33.6423774,48.9891625 33.7328975,48.8344942 33.7333333,48.6666667 L33.7333333,47.5256667 L37.0107333,45.477 L40.0352,47.2036667 C40.1786354,47.2855993 40.3546979,47.2855993 40.4981333,47.2036667 L43.7648,45.337 C43.9097579,45.2541989 43.9994448,45.100272 43.9999991,44.9333333 L43.9999991,41.2 C44.0003297,41.0329469 43.9113393,40.8784597 43.7666667,40.7949333 L40.7333333,39.0626667 L40.7333333,34.9373333 L43.7666667,33.2050667 Z M40.7333333,33.8626 L40.7333333,31.2026 L43.0666667,29.8693333 L43.0666667,32.5293333 L40.7333333,33.8626 Z M40.2666667,42.5290667 L37.9403333,41.2 L40.2666667,39.8709333 L42.593,41.2 L40.2666667,42.5290667 Z M37.4666667,29.8707333 L39.8,31.204 L39.8,33.864 L37.4666667,32.5293333 L37.4666667,29.8707333 Z M40.2666667,27.7376 L42.593,29.0666667 L40.2666667,30.3957333 L37.9403333,29.0666667 L40.2666667,27.7376 Z M30,46.2642667 L27.6736667,44.9333333 L30,43.6042667 L32.3263333,44.9333333 L30,46.2642667 Z M27.2,35.9374 L29.5333333,37.2706667 L29.5333333,39.9306667 L27.2,38.596 L27.2,35.9374 Z M30.4666667,37.2706667 L32.8,35.9374 L32.8,38.5974 L30.4666667,39.9306667 L30.4666667,37.2706667 Z M30,36.4624 L27.6736667,35.1333333 L30,33.8042667 L32.3263333,35.1333333 L30,36.4624 Z M27.2,26.1374 L29.5333333,27.4706667 L29.5333333,30.1306667 L27.2,28.796 L27.2,26.1374 Z M30.4666667,27.4706667 L32.8,26.1374 L32.8,28.7974 L30.4666667,30.1306667 L30.4666667,27.4706667 Z M30,24.0042667 L32.3263333,25.3333333 L30,26.6624 L27.6736667,25.3333333 L30,24.0042667 Z M20.2,31.204 L22.5333333,29.8707333 L22.5333333,32.5307333 L20.2,33.864 L20.2,31.204 Z M19.7333333,27.7376 L22.0596667,29.0666667 L19.7333333,30.3957333 L17.407,29.0666667 L19.7333333,27.7376 Z M16.9333333,29.8707333 L19.2666667,31.204 L19.2666667,33.864 L16.9333333,32.5293333 L16.9333333,29.8707333 Z M19.7333333,42.5290667 L17.407,41.2 L19.7333333,39.8709333 L22.0596667,41.2 L19.7333333,42.5290667 Z M16.9333333,42.0040667 L19.2666667,43.3373333 L19.2666667,45.9973333 L16.9333333,44.6626667 L16.9333333,42.0040667 Z M20.2,45.9959333 L20.2,43.3359333 L22.5333333,42.0026667 L22.5333333,44.6626667 L20.2,45.9959333 Z M23.4666667,44.6743333 L23.4666667,41.2 C23.4669963,41.0329469 23.378006,40.8784597 23.2333333,40.7949333 L20.2,39.0626667 L20.2,34.9373333 L23.2333333,33.2050667 C23.378006,33.1215403 23.4669963,32.9670531 23.4666667,32.8 L23.4666667,31.2217333 L26.7188667,29.5958667 L29.5333333,31.204 L29.5333333,32.996 L26.5,34.7282667 C26.3553273,34.811793 26.266337,34.9662803 26.2666667,35.1333333 L26.2666667,38.8666667 C26.266337,39.0337197 26.3553273,39.188207 26.5,39.2717333 L29.5333333,41.004 L29.5333333,42.796 L26.5,44.5282667 C26.3553273,44.611793 26.266337,44.7662803 26.2666667,44.9333333 L26.2666667,46.4266667 L23.4666667,44.6743333 Z M27.2,45.7374 L29.5333333,47.0706667 L29.5333333,49.7306667 L27.2,48.396 L27.2,45.7374 Z M30.4666667,49.7292667 L30.4666667,47.0692667 L32.8,45.736 L32.8,48.396 L30.4666667,49.7292667 Z M33.5,44.5282667 L30.4666667,42.796 L30.4666667,41.004 L33.5,39.2717333 C33.6446727,39.188207 33.733663,39.0337197 33.7333333,38.8666667 L33.7333333,35.1333333 C33.733663,34.9662803 33.6446727,34.811793 33.5,34.7282667 L30.4666667,32.996 L30.4666667,31.204 L33.2811333,29.5958667 L36.5333333,31.2217333 L36.5333333,32.8 C36.5330037,32.9670531 36.621994,33.1215403 36.7666667,33.2050667 L39.8,34.9373333 L39.8,39.0626667 L36.7666667,40.7949333 C36.621994,40.8784597 36.5330037,41.0329469 36.5333333,41.2 L36.5333333,44.6743333 L33.7333333,46.4266667 L33.7333333,44.9333333 C33.733663,44.7662803 33.6446727,44.611793 33.5,44.5282667 Z M37.4666667,42.0040667 L39.8,43.3373333 L39.8,45.9973333 L37.4666667,44.6626667 L37.4666667,42.0040667 Z M40.7333333,45.9959333 L40.7333333,43.3359333 L43.0666667,42.0026667 L43.0666667,44.6626667 L40.7333333,45.9959333 Z" id="hash-icon"></path>
                </g>
            </g>
        </g>
    </g>
</svg>