<?xml version="1.0" encoding="UTF-8"?>
<svg width="26px" height="26px" viewBox="0 0 26 26" version="1.1" xmlns="http://www.w3.org/2000/svg" xmlns:xlink="http://www.w3.org/1999/xlink">
    <title>instagram</title>
    <g id="GOLD" stroke="none" stroke-width="1" fill="none" fill-rule="evenodd">
        <g id="0.desktop" transform="translate(-1128.000000, -5488.000000)" fill="#6A3534" fill-rule="nonzero">
            <g id="footer-share" transform="translate(1052.000000, 5488.000000)">
                <path d="M91.4882812,13 C91.4882812,14.3742676 90.3742676,15.4882813 89,15.4882813 C87.6257324,15.4882813 86.5117188,14.3742676 86.5117188,13 C86.5117188,11.6257324 87.6257324,10.5117188 89,10.5117188 C90.3742676,10.5117188 91.4882812,11.6257324 91.4882812,13 Z M89,0 C96.1786041,0 102,5.82139589 102,13 C102,20.1786041 96.1786041,26 89,26 C81.8213959,26 76,20.1786041 76,13 C76,5.82139589 81.8213959,0 89,0 Z M89.7079288,5.53564398 L88.2920712,5.53564354 C86.8971607,5.53790223 86.6145835,5.54861915 85.9223785,5.58018495 C85.1277313,5.61648557 84.5852051,5.74264529 84.1103211,5.92712402 C83.6122284,6.11457823 83.1609497,6.40835569 82.7882233,6.78822325 C82.4083557,7.16094971 82.1143799,7.61222841 81.9269257,8.11032107 C81.7424469,8.58520508 81.6162872,9.12773134 81.5801849,9.92237853 C81.5484467,10.6145835 81.5378572,10.8971607 81.5356347,12.2920712 L81.5356352,13.7079293 C81.5378606,15.1028426 81.5484725,15.3854423 81.5803833,16.0778198 C81.6164856,16.8722687 81.7428436,17.4149933 81.9273224,17.8896789 C82.1147766,18.3877716 82.4085541,18.8390503 82.7882233,19.2117767 C83.1611481,19.5916443 83.6122284,19.8854218 84.1105194,20.072876 C84.5852051,20.2573547 85.1279297,20.3835144 85.9223785,20.4198151 C86.1300918,20.4292848 86.3009115,20.4368781 86.4759448,20.4429296 L86.6539051,20.4484796 C87.0187246,20.4586011 87.4552076,20.4630012 88.2922104,20.4643565 L89.7081272,20.4643565 C91.1030376,20.4620978 91.3856148,20.4513809 92.0778198,20.4198151 C92.8722687,20.3835144 93.4149933,20.2573547 93.8896789,20.072876 C94.8924103,19.6850738 95.6850738,18.8924103 96.072876,17.8896789 C96.2573547,17.4147949 96.3837128,16.8722687 96.4198151,16.0776215 C96.4515533,15.3854165 96.4621428,15.1028393 96.4643653,13.7079288 L96.4643657,12.2920712 C96.4621461,10.8971607 96.4515792,10.6145835 96.4200135,9.92237853 C96.3837128,9.12773134 96.2575531,8.58520508 96.072876,8.11032107 C95.8856201,7.61222841 95.5916443,7.16114806 95.2119751,6.78822325 C94.8390503,6.40835569 94.3877716,6.11437988 93.8896789,5.92692567 C93.4147949,5.74264529 92.8722687,5.61648557 92.0776215,5.5803833 C91.3854165,5.54864502 91.1028393,5.5379056 89.7079288,5.53564398 Z M89.6953739,6.88070446 C90.5850601,6.88204163 91.0095907,6.88670167 91.385788,6.8983739 L91.643633,6.90762031 C91.7593522,6.91226804 91.8796022,6.91766025 92.0165253,6.92390441 C92.7443237,6.95703125 93.1394653,7.07862853 93.4024963,7.18078613 C93.7268219,7.30039979 94.0200043,7.49122618 94.2608185,7.73918153 C94.5087738,7.97999571 94.6996002,8.27337646 94.8192139,8.59750369 C94.9215698,8.86053467 95.0431671,9.25587462 95.0762939,9.98367307 C95.0825381,10.1205617 95.0879243,10.2407831 95.0925621,10.3564798 L95.1017805,10.6142843 C95.1134053,10.9904378 95.117993,11.4149879 95.1193048,12.304757 L95.1193048,13.6955723 C95.118094,14.516821 95.1140917,14.9417242 95.1043399,15.2981239 L95.0989712,15.4721329 C95.093096,15.6434689 95.0856602,15.811339 95.0762939,16.0167236 C95.0429688,16.7445221 94.9213715,17.1396637 94.8192139,17.4026947 C94.5680847,18.0537262 94.0535278,18.5682831 93.4024963,18.8194122 C93.1394653,18.9217682 92.7441254,19.0433655 92.0163269,19.0764923 C91.36627,19.1061521 91.0921291,19.1164543 89.8925912,19.1191406 L88.1071134,19.1191406 C86.9077296,19.1164543 86.6336955,19.1061521 85.9834747,19.0764923 C85.2556763,19.0433655 84.8603363,18.9217682 84.5973053,18.8194122 C84.2729797,18.6997986 83.9797974,18.5089722 83.7389832,18.2610168 C83.4910278,18.0202026 83.3003998,17.7270203 83.1805878,17.4026947 C83.0784302,17.1396637 82.9568329,16.7445221 82.9237061,16.0167236 C82.8940463,15.366339 82.8836087,15.0921411 82.8808754,13.892817 L82.8808754,12.1074942 C82.8836087,10.9080633 82.8940463,10.6338939 82.9237061,9.98367307 C82.9568329,9.25587462 83.0784302,8.86053467 83.1805878,8.59750369 C83.3003998,8.27317811 83.4912262,7.97999571 83.7391815,7.73918153 C83.9797974,7.49122618 84.2731781,7.30039979 84.5975037,7.18078613 C84.8603363,7.07862853 85.2556763,6.95703125 85.9834747,6.92370605 C86.1888076,6.91433982 86.3566395,6.90690397 86.5279507,6.90102875 L86.7019395,6.89566005 C87.0583077,6.8859083 87.4832333,6.88190605 88.3045586,6.88069522 Z M89,9.16680908 C86.8828583,9.16680908 85.1666107,10.8828583 85.1666107,13 C85.1666107,15.1171417 86.8828583,16.8331909 89,16.8331909 C91.1169434,16.8331909 92.8331909,15.1171417 92.8331909,13 C92.8331909,10.8828583 91.1169434,9.16680908 89,9.16680908 Z M92.9847412,8.1194458 C92.4900207,8.1194458 92.0889282,8.5205383 92.0889282,9.01525879 C92.0889282,9.50997927 92.4900207,9.91107178 92.9847412,9.91107178 C93.4794617,9.91107178 93.8803558,9.50997927 93.8805542,9.01525879 C93.8805542,8.5205383 93.4794617,8.1194458 92.9847412,8.1194458 Z" id="instagram"></path>
            </g>
        </g>
    </g>
</svg>