<?xml version="1.0" encoding="UTF-8"?>
<svg width="23px" height="30px" viewBox="0 0 23 30" version="1.1" xmlns="http://www.w3.org/2000/svg" xmlns:xlink="http://www.w3.org/1999/xlink">
    <title>marker</title>
    <g id="GOLD" stroke="none" stroke-width="1" fill="none" fill-rule="evenodd">
        <g id="0.desktop" transform="translate(-565.000000, -3039.000000)" fill="#decdbe">
            <g id="locations-area" transform="translate(0.000000, 2952.000000)">
                <path d="M576.4248,94.5198 C574.7223,94.5198 573.3378,95.8323 573.3378,97.4448 C573.3378,99.0588 574.7223,100.3698 576.4248,100.3698 C578.1228,100.3698 579.5058,99.0588 579.5058,97.4448 C579.5058,95.8323 578.1228,94.5198 576.4248,94.5198 L576.4248,94.5198 Z M576.4248,102.8808 C573.2958,102.8808 570.7503,100.4418 570.7503,97.4448 C570.7503,94.4478 573.2958,92.0103 576.4248,92.0103 C579.5538,92.0103 582.0993,94.4478 582.0993,97.4448 C582.0993,100.4418 579.5538,102.8808 576.4248,102.8808 L576.4248,102.8808 Z M576.5778,116.3508 C576.1248,116.3508 575.7108,116.1318 575.4708,115.7643 L567.1368,102.9453 C566.0658,101.2968 565.5003,99.3948 565.5003,97.4448 C565.5003,91.6863 570.3993,87.0003 576.4248,87.0003 C582.4503,87.0003 587.3493,91.6863 587.3493,97.4448 C587.3493,99.3348 586.8153,101.1888 585.8043,102.8043 L577.6818,115.7448 C577.4463,116.1198 577.0338,116.3463 576.5808,116.3508 L576.5793,116.3508 L576.5778,116.3508 Z" id="marker"></path>
            </g>
        </g>
    </g>
</svg>