<?xml version="1.0" encoding="UTF-8"?>
<svg width="33px" height="44px" viewBox="0 0 33 44" version="1.1" xmlns="http://www.w3.org/2000/svg" xmlns:xlink="http://www.w3.org/1999/xlink">
    <title>location</title>
    <g id="GOLD" stroke="none" stroke-width="1" fill="none" fill-rule="evenodd" opacity="0.800000012">
        <path d="M16.5,11.2726529 C13.9286009,11.2726529 11.8374983,13.2402514 11.8374983,15.6575868 C11.8374983,18.0771707 13.9286009,20.0425206 16.5,20.0425206 C19.0646025,20.0425206 21.1534395,18.0771707 21.1534395,15.6575868 C21.1534395,13.2402514 19.0646025,11.2726529 16.5,11.2726529 L16.5,11.2726529 Z M16.5,23.8068176 C11.7740629,23.8068176 7.92942469,20.1504574 7.92942469,15.6575868 C7.92942469,11.1647161 11.7740629,7.51060459 16.5,7.51060459 C21.2259371,7.51060459 25.0705753,11.1647161 25.0705753,15.6575868 C25.0705753,20.1504574 21.2259371,23.8068176 16.5,23.8068176 L16.5,23.8068176 Z M16.7310861,44 C16.04689,44 15.4215982,43.6716921 15.0591103,43.1207646 L2.47171495,23.903511 C0.854112316,21.4322073 0,18.580876 0,15.6575868 C0,7.02488884 7.39928601,0 16.5,0 C25.600714,0 33,7.02488884 33,15.6575868 C33,18.4909286 32.1934642,21.270302 30.6664836,23.6921347 L18.3985308,43.0915317 C18.0428395,43.6537027 17.4198133,43.9932539 16.7356172,44 L16.7333516,44 L16.7310861,44 Z" id="location" fill="#FFFFFF"></path>
    </g>
</svg>