<?xml version="1.0" encoding="UTF-8"?>
<svg width="63px" height="54px" viewBox="0 0 63 54" version="1.1" xmlns="http://www.w3.org/2000/svg" xmlns:xlink="http://www.w3.org/1999/xlink">
    <title>icon 2</title>
    <g id="GOLD" stroke="none" stroke-width="1" fill="none" fill-rule="evenodd">
        <g id="0.desktop" transform="translate(-608.000000, -5195.000000)" fill="#FFFFFF" fill-rule="nonzero">
            <g id="close-area" transform="translate(0.000000, 4696.000000)">
                <g id="icon-2" transform="translate(608.000000, 499.000000)">
                    <path d="M4.66240215,0.16350798 C4.99044476,-0.0251023778 5.38739355,-0.0519587187 5.73795372,0.0903306104 L5.73795372,0.0903306104 L15.3469199,3.99509475 C15.9766732,4.25096915 16.2799834,4.96943787 16.0244153,5.6000691 C15.7688472,6.23057714 15.0518538,6.5343741 14.4214854,6.2783765 L14.4214854,6.2783765 L6.26951565,2.965807 L2.75566983,27.4500431 C2.75468545,27.5107779 2.74914835,27.571759 2.73868938,27.6328634 C1.97075466,32.1591424 2.81141,36.8429868 5.10573956,40.8216674 C10.3545444,49.9236263 21.7987528,53.2656392 31.0978873,48.6254056 L31.0978873,48.6254056 L29.0329169,45.0445191 L12.3237845,40.561974 C11.6672071,40.3858063 11.2776411,39.7103323 11.4535979,39.052968 C11.6295548,38.3957268 12.3038509,38.0055707 12.9606744,38.1817384 L12.9606744,38.1817384 L27.2925438,42.0265069 L22.7366151,34.1259381 L11.1448737,31.0161463 C10.4882963,30.8399786 10.0987303,30.1645047 10.2746871,29.5071403 C10.450644,28.8498991 11.1250631,28.459743 11.7817636,28.6359107 L11.7817636,28.6359107 L20.996242,31.1078028 L17.4048767,24.8799652 L10.4239428,23.0070434 C9.76736539,22.8308757 9.37779941,22.1554017 9.55375625,21.4980374 C9.72971309,20.8407962 10.4041323,20.4506401 11.0608327,20.6268078 L11.0608327,20.6268078 L15.6645036,21.8618299 L12.2622611,15.9619353 C11.922283,15.3726973 12.1239566,14.6191183 12.7126122,14.278979 C13.3011448,13.9385934 14.0538217,14.1406319 14.3935538,14.7298699 L14.3935538,14.7298699 L17.7957962,20.6298877 L19.0295859,16.0205758 C19.2055427,15.3633346 19.8798389,14.9733017 20.5366624,15.1493462 C21.1932398,15.3255139 21.5828058,16.0009879 21.4068489,16.6583523 L21.4068489,16.6583523 L19.5361693,23.6477766 L23.1275346,29.8756142 L25.5965905,20.6498451 C25.7725474,19.9926039 26.4469665,19.6024478 27.103667,19.7786156 C27.7602444,19.9547833 28.1498104,20.6302573 27.9738536,21.2876216 L27.9738536,21.2876216 L24.8676616,32.8935031 L29.4235903,40.7940719 L33.2637561,26.4446551 C33.4397129,25.7874139 34.113886,25.397381 34.7708326,25.5734255 C35.42741,25.7495932 35.816976,26.4250672 35.6410191,27.0824316 L35.6410191,27.0824316 L31.1637173,43.8117145 L33.2289338,47.3929706 C37.2722498,44.7166992 40.1670475,40.7111622 41.4370129,35.9920843 C42.8136598,30.8760745 42.1167231,25.5354817 39.4746634,20.9536421 C37.2049432,17.0174634 33.6176385,13.9636018 29.3738794,12.354562 C29.3480396,12.3447065 29.3225689,12.3341118 29.2975904,12.3226547 L29.2975904,12.3226547 L23.7801745,10.0807662 C23.1504213,9.82489183 22.8471111,9.10642312 23.1026791,8.47579188 C23.3582472,7.84540703 24.0753636,7.54161008 24.7056091,7.79748448 L24.7056091,7.79748448 L30.2737202,10.0600696 L30.2737202,10.0600696 L30.2973452,10.0700483 C35.0479338,11.8849457 39.0623338,15.3107306 41.6060791,19.721823 C43.6261375,23.2247276 44.6340133,27.1221001 44.5867634,31.0659168 L44.5867634,31.0659168 L46.1878476,28.2893654 L44.638443,22.4998528 C44.4624862,21.8426116 44.8520522,21.1668913 45.5086296,20.9908467 C46.1648379,20.814679 46.8397493,21.2048351 47.0157061,21.8620763 L47.0157061,21.8620763 L47.9282207,25.2714765 L50.5466554,20.7307837 C50.8863875,20.1415458 51.6389413,19.9396304 52.227597,20.2798929 C52.8161295,20.6200321 53.0178031,21.373488 52.677948,21.9628492 L52.677948,21.9628492 L50.0595134,26.5036651 L53.464832,25.5900567 C54.1207941,25.413889 54.7959516,25.8040451 54.9719085,26.4612863 C55.1478653,27.1185275 54.7582993,27.7942478 54.1017219,27.9702923 L54.1017219,27.9702923 L48.3191402,29.521554 L45.5828268,34.2668723 L52.859565,32.3147367 C53.5155272,32.1385689 54.1908077,32.528725 54.3666415,33.1859662 C54.5425984,33.8432074 54.1530324,34.5189277 53.496455,34.6949723 L53.496455,34.6949723 L43.6069422,37.3479599 C42.9557788,39.4884595 42.0029049,41.4891337 40.7848652,43.3032919 L40.7848652,43.3032919 L51.869654,40.3296297 C52.5256162,40.153462 53.2008967,40.5436181 53.3767305,41.2008593 C53.5526873,41.8581004 53.1631213,42.5338208 52.5065439,42.7098653 L52.5065439,42.7098653 L38.1004774,46.5745913 C37.3839762,47.294292 36.6157954,47.9670556 35.7991342,48.5884473 C35.8260814,48.6015059 35.8531517,48.6143181 35.8794837,48.6295942 C39.6887648,50.8313214 44.1234924,51.4203129 48.3671285,50.288158 C52.6096571,49.1563727 56.1531572,46.4395705 58.3452349,42.6382895 C60.248645,39.3374234 60.9461969,35.451508 60.3090609,31.6963016 C60.2993402,31.6388931 60.2936801,31.5814846 60.2920805,31.5243225 L60.2920805,31.5243225 L57.3782105,11.224871 L44.3003106,16.4890834 C43.6699421,16.7428635 42.9530718,16.4369722 42.6994725,15.8054786 C42.4461192,15.1742314 42.7516443,14.4566251 43.3822588,14.202845 L43.3822588,14.202845 L57.9144482,8.35333682 C58.2652545,8.21215624 58.6610959,8.24024452 58.9881541,8.42910127 C59.3153354,8.61795802 59.5378039,8.94688659 59.5915753,9.32127384 L59.5915753,9.32127384 L62.7493239,31.3198201 C62.754738,31.3575175 62.7583063,31.3953382 62.7602751,31.4330356 C63.449706,35.7063968 62.6410428,40.1172429 60.4767736,43.8702317 C57.9554228,48.2425179 53.8797456,51.3674626 49.0009422,52.6691328 C47.3795553,53.1016677 45.7336821,53.3156561 44.0983909,53.3156561 C41.0971578,53.3156561 38.1313622,52.5926292 35.4122752,51.179345 L35.4122752,51.179345 L35.9729992,52.1518402 C36.3129774,52.7410782 36.1113038,53.4946573 35.5226482,53.8347965 C35.3288496,53.9467801 35.1172092,54 34.9085219,54 C34.4831493,54 34.0695892,53.7789896 33.8415836,53.3837825 L33.8415836,53.3837825 L32.3292161,50.7612238 C29.1196648,52.3899747 25.6782936,53.1709029 22.2771585,53.1709029 C14.5764012,53.1710261 7.0851925,49.1831058 2.9738317,42.0532401 C0.420734844,37.6258861 -0.531893035,32.422162 0.28489124,27.3814239 C0.286613895,27.3401539 0.290305297,27.2985142 0.296334587,27.2569978 L0.296334587,27.2569978 L4.05713522,1.0567893 C4.11102969,0.681539693 4.33423648,0.352118337 4.66240215,0.16350798 Z M52.8922955,16.6603234 C53.4420683,16.2604349 54.2117257,16.3826436 54.6111354,16.9331986 L54.6111354,16.9331986 L54.6185182,16.9433005 C55.0178049,17.4938555 54.8957425,18.2643122 54.3459697,18.6640774 C54.1275617,18.8227516 53.8744546,18.8992552 53.6238083,18.8992552 C53.2432248,18.8992552 52.8678092,18.7229643 52.6270067,18.391079 L52.6270067,18.391079 L52.6196239,18.3811003 C52.2202142,17.8306685 52.3423996,17.0600886 52.8922955,16.6603234 Z M19.4645561,5.76514936 C19.7882921,5.76514936 20.1057527,5.89696718 20.3344966,6.12610844 C20.564594,6.35648164 20.6951466,6.67321399 20.6951466,6.9972148 C20.6951466,7.32121561 20.564594,7.6391799 20.3344966,7.8695531 C20.1057527,8.09869436 19.788169,8.23051218 19.4645561,8.23051218 C19.1408201,8.23051218 18.8233595,8.09881755 18.5944926,7.8695531 C18.3655026,7.6391799 18.2339656,7.32244755 18.2339656,6.9972148 C18.2339656,6.6730908 18.3656257,6.35648164 18.5944926,6.12610844 C18.8233595,5.89696718 19.1408201,5.76514936 19.4645561,5.76514936 Z" id="icon"></path>
                </g>
            </g>
        </g>
    </g>
</svg>