<?xml version="1.0" encoding="UTF-8"?>
<svg width="27px" height="29px" viewBox="0 0 27 29" version="1.1" xmlns="http://www.w3.org/2000/svg" xmlns:xlink="http://www.w3.org/1999/xlink">
    <title>Shape</title>
    <g id="GOLD" stroke="none" stroke-width="1" fill="none" fill-rule="evenodd">
        <g id="0.desktop" transform="translate(-672.000000, -625.000000)" fill="#FFFFFF" fill-rule="nonzero">
            <g id="intro" transform="translate(130.645000, -119.000000)">
                <g id="share" transform="translate(525.355000, 722.000000)">
                    <path d="M37.4972135,40.0569241 C35.7962169,40.0569241 34.2734211,40.8283344 33.263017,42.0375239 L26.6903834,38.3277601 C26.8947751,37.7559668 27.0071136,37.1411615 27.0071136,36.5004467 C27.0071136,35.8598596 26.8947751,35.2450542 26.6903834,34.673261 L33.2625034,30.9626037 C34.2727791,32.1721761 35.7958317,32.9438417 37.4969568,32.9438417 C40.5312503,32.9438417 43,30.4888322 43,27.4710913 C43,24.4542438 40.5315071,22 37.4972135,22 C34.4625348,22 31.9936567,24.4542438 31.9936567,27.4709636 C31.9936567,28.1116784 32.1058668,28.7266114 32.310387,29.2985322 L25.7378817,33.0093172 C24.727606,31.8003829 23.2049386,31.0292278 21.5043271,31.0292278 C18.4692632,31.0292278 16,33.4834716 16,36.5003191 C16,39.5170389 18.4692632,41.9712827 21.5043271,41.9712827 C23.2049386,41.9712827 24.7274776,41.2001276 25.7377533,39.991321 L32.310387,43.7012125 C32.1058668,44.2731334 31.9935284,44.888194 31.9935284,45.5290364 C31.9935284,48.5457562 34.4624064,51 37.4970851,51 C40.5313787,51 43,48.5456286 43,45.5290364 C43,42.511806 40.5315071,40.0569241 37.4972135,40.0569241 Z M37.4972135,23.9144863 C39.4696199,23.9144863 41.0743264,25.5098915 41.0743264,27.4709636 C41.0743264,29.4330568 39.4696199,31.0292278 37.4972135,31.0292278 C35.524422,31.0292278 33.9194587,29.4330568 33.9194587,27.4709636 C33.9194587,25.5098915 35.524422,23.9144863 37.4972135,23.9144863 Z M21.5044555,40.0569241 C19.5312788,40.0569241 17.9259303,38.4613912 17.9259303,36.5004467 C17.9259303,34.539247 19.5312788,32.9438417 21.5044555,32.9438417 C23.4768618,32.9438417 25.08144,34.539247 25.08144,36.5004467 C25.08144,38.4613912 23.4767335,40.0569241 21.5044555,40.0569241 Z M37.4972135,49.0856414 C35.524422,49.0856414 33.9194587,47.4901085 33.9194587,45.529164 C33.9194587,43.5674537 35.524422,41.9714103 37.4972135,41.9714103 C39.4696199,41.9714103 41.0743264,43.5674537 41.0743264,45.529164 C41.0743264,47.4901085 39.4696199,49.0856414 37.4972135,49.0856414 Z" id="Shape"></path>
                </g>
            </g>
        </g>
    </g>
</svg>