<?xml version="1.0" encoding="UTF-8"?>
<svg width="44px" height="44px" viewBox="0 0 44 44" version="1.1" xmlns="http://www.w3.org/2000/svg" xmlns:xlink="http://www.w3.org/1999/xlink">
    <title>specie 2</title>
    <defs>
        <filter color-interpolation-filters="auto" id="filter-1">
            <feColorMatrix in="SourceGraphic" type="matrix" values="0 0 0 0 1.000000 0 0 0 0 1.000000 0 0 0 0 1.000000 0 0 0 1.000000 0"></feColorMatrix>
        </filter>
    </defs>
    <g id="GOLD" stroke="none" stroke-width="1" fill="none" fill-rule="evenodd" opacity="0.800000012">
        <g id="specie" filter="url(#filter-1)">
            <g>
                <path d="M26.7043047,18.7493281 C27.0566484,18.0802188 28.4453125,16.7316875 28.4453125,14.1796875 C28.4453125,8.97917969 23.5912187,8.00138281 23.3331484,7.81867969 C23.3151875,7.62970312 23.269125,7.14346875 23.2551172,6.99522656 C22.8749297,3.00721094 19.5641016,0 15.5546875,0 C11.5880703,0 8.28738281,3.00867188 7.87694531,6.99797656 L7.79264063,7.8161875 C7.53482812,7.99777344 2.578125,8.95889844 2.578125,14.1796875 C2.578125,16.7286797 3.96773437,18.0821094 4.31913281,18.7493281 C4.07171875,19.0087734 0,21.0811562 0,25.8671875 C0,30.1321797 3.55532031,33.515625 7.8203125,33.515625 L23.2890625,33.515625 C27.5540547,33.515625 31.0234375,30.0462422 31.0234375,25.78125 C31.0234375,20.9669453 26.998125,19.0575859 26.7043047,18.7493281 Z" id="Path" fill="#000000" fill-rule="nonzero"></path>
                <path d="M39.6808672,18.7493281 C40.0332109,18.0802188 41.421875,16.7316875 41.421875,14.1796875 C41.421875,8.97917969 36.4818438,8.00138281 36.2237734,7.81867969 C36.2058125,7.62970312 36.15975,7.14346875 36.1457422,6.99522656 C35.7655547,3.00721094 32.4547266,0 28.4453125,0 C26.7046484,0 25.1113672,0.604226563 23.8150859,1.59182031 C24.7618594,2.86782031 25.4484141,4.35660156 25.7249609,6.01227344 C30.3084375,8.1888125 31.0234375,11.9867344 31.0234375,14.1796875 C31.0234375,15.8338125 30.5941797,17.1442734 30.1132734,18.1237031 C32.4547266,20.2385391 33.6015625,22.7889922 33.6015625,25.78125 C33.6015625,28.8758594 32.2031016,31.6238828 30.0375625,33.515625 L36.1796875,33.515625 C40.4446797,33.515625 44,30.0462422 44,25.78125 C44,20.9669453 39.9746875,19.0575859 39.6808672,18.7493281 Z" id="Path" fill="#000000" fill-rule="nonzero"></path>
                <polygon id="Path" fill="#000000" fill-rule="nonzero" points="33.6015625 41.421875 33.6015625 36.09375 28.4453125 36.09375 28.4453125 41.421875 18.1328125 41.421875 18.1328125 36.09375 12.9765625 36.09375 12.9765625 41.421875 7.8203125 41.421875 7.8203125 44 38.7578125 44 38.7578125 41.421875"></polygon>
            </g>
        </g>
    </g>
</svg>