<?xml version="1.0" encoding="UTF-8"?>
<svg width="26px" height="26px" viewBox="0 0 26 26" version="1.1" xmlns="http://www.w3.org/2000/svg" xmlns:xlink="http://www.w3.org/1999/xlink">
    <title>twitter</title>
    <g id="GOLD" stroke="none" stroke-width="1" fill="none" fill-rule="evenodd">
        <g id="0.desktop" transform="translate(-1090.000000, -5488.000000)" fill="#6A3534" fill-rule="nonzero">
            <g id="footer-share" transform="translate(1052.000000, 5488.000000)">
                <path d="M51,0 C43.8213959,0 38,5.82139589 38,13 C38,20.1786041 43.8213959,26 51,26 C58.1786041,26 64,20.1786041 64,13 C64,5.82139589 58.1786041,0 51,0 Z M56.9356537,10.1360168 C56.9414062,10.2639618 56.9441834,10.3925018 56.9441834,10.5216369 C56.9441834,14.4645233 53.9429321,19.0112305 48.4543915,19.0114288 L48.4545898,19.0114288 L48.4543915,19.0114288 C46.7692871,19.0114288 45.2012177,18.5175018 43.8807068,17.6710815 C44.1141815,17.6986542 44.3518219,17.7123413 44.5924377,17.7123413 C45.990509,17.7123413 47.2770996,17.2354736 48.2984772,16.4350738 C46.9922485,16.4108734 45.8909302,15.5481873 45.5108643,14.3625641 C45.6927643,14.3974762 45.8798218,14.4165192 46.07164,14.4165192 C46.3439941,14.4165192 46.6078186,14.3798218 46.858551,14.3113861 C45.4932099,14.0380401 44.4646912,12.8313904 44.4646912,11.3865051 C44.4646912,11.3730164 44.4646912,11.3609161 44.4650879,11.3484192 C44.8671723,11.5719757 45.3269806,11.7064667 45.8165436,11.7215424 C45.0153504,11.1869507 44.4886932,10.2730865 44.4886932,9.23782346 C44.4886932,8.69113162 44.6364746,8.17895508 44.8927612,7.73799132 C46.3642273,9.54350282 48.5632935,10.7309112 51.0432434,10.8556824 C50.9920654,10.637085 50.965683,10.4093628 50.965683,10.175293 C50.965683,8.52807617 52.302063,7.19169618 53.9498749,7.19169618 C54.808197,7.19169618 55.5834045,7.55450439 56.1279144,8.13452148 C56.8077088,8.00042725 57.4460449,7.7520752 58.0226898,7.41029357 C57.7995301,8.10675049 57.3266297,8.69113162 56.7105103,9.06068419 C57.3141327,8.9884796 57.8893891,8.82839963 58.4239807,8.59075928 C58.0246734,9.18922423 57.5182495,9.71488954 56.9356537,10.1360168 Z" id="twitter"></path>
            </g>
        </g>
    </g>
</svg>