<svg xmlns="http://www.w3.org/2000/svg" viewBox="0 0 276.38 793.67"><defs><style>.cls-1{opacity:0.5;}.cls-2{fill:#693635;}.cls-2,.cls-4,.cls-6{stroke:#fff;}.cls-2,.cls-3,.cls-4,.cls-6{stroke-linecap:round;stroke-linejoin:round;}.cls-3,.cls-4,.cls-5{fill:#fff;}.cls-3{stroke:#693635;}.cls-6{fill:none;}</style></defs><g id="Capa_2" data-name="Capa 2"><g id="Capa_1-2" data-name="Capa 1"><g class="cls-1"><path class="cls-2" d="M91.47,397c18.35-1.1,35.08-1.1,35.08-1.1v9.34"/><path class="cls-2" d="M251.06,26.94l-8.91-1.39-1.34,5.23h9.25"/><path class="cls-2" d="M250.06,36.12c.87,1.88.47,1.77,2.59,1.77,3,0,8.11.06,9.65-6.72.64-2.85.27-4.48-.41-5.62a6.33,6.33,0,0,0-4.05-3.27"/><path class="cls-2" d="M253.7,21.9c-1.62,0-6.13,14.44-3.1,14.44s8.12-.43,9.65-7.22S258.28,21.9,253.7,21.9Z"/><path class="cls-2" d="M240.85,58,232,56.59l-1.34,5.22h9.25"/><path class="cls-2" d="M239.86,67.15c.86,1.89.47,1.78,2.59,1.78,3,0,8.11.06,9.64-6.72.65-2.85.27-4.48-.4-5.62a6.35,6.35,0,0,0-4.05-3.28"/><path class="cls-2" d="M243.5,52.94c-1.62,0-6.13,14.44-3.1,14.44s8.11-.44,9.65-7.22S248.08,52.94,243.5,52.94Z"/><path class="cls-2" d="M232,89l-8.9-1.39-1.34,5.23H231"/><path class="cls-2" d="M231,98.19c.86,1.88.47,1.77,2.58,1.77,3,0,8.12.07,9.65-6.72.65-2.85.27-4.48-.4-5.62a6.33,6.33,0,0,0-4-3.27"/><path class="cls-2" d="M234.6,84c-1.62,0-6.13,14.43-3.1,14.43s8.11-.43,9.65-7.22S239.18,84,234.6,84Z"/><path class="cls-2" d="M199.25,122.39,159.7,411l38.85-4.39c2-18.17-5-20.81-5-20.81-5.59,0-24.23,0-24.93-17s31.92-216.69,35.88-241.1c5.37-22.9,18.2-24,18.2-24l26.79-93.15-7.52-6.68"/><path class="cls-2" d="M169.75,791.89s48.26-15.51,57.86-19,26.33-6.06,39.61-37.51,8.39-72.47,4.2-93.21-14.8-65.24-14.45-95.47,20.27-57.15,16.95-84.93-35.12-42.12-75.37-55.17L159.7,411"/><path class="cls-2" d="M159.7,411c43,17.75,68.61,32.09,64.88,66.4s-27,59.46-22.37,98.14,25.63,121.17,7,173.83-55.28,54.52-116.88,23.3S6,714.86.89,660.34s41.48-117.1,50.33-147.56,2.8-71.61,5.59-88.32,17.19-37,68.78-22.77"/><polyline class="cls-2" points="151.77 652.24 154.56 650.38 155.84 632.78 72.25 596.67 69.18 597.65"/><path class="cls-2" d="M69.18,597.65,153,633.36l-1.22,18.88s-9.09-6.11-16.26-5.59-18.65.16-33.79-6.12S85.71,624,76.8,620.45l-8.92-3.51Z"/><polyline class="cls-3" points="88.36 613.2 90.23 612.33 126.23 625.38 126.23 627.94 124.54 628.58"/><polygon class="cls-3" points="88.36 613.2 124.54 626.25 124.54 628.58 88.36 615.59 88.36 613.2"/><path class="cls-2" d="M151.63,470c10.66,8.07,19.4,30.09,17,53.15s-20.5,52.91-50,40.9c-28.31-11.54-31.9-51.69-29.71-66.76a51.57,51.57,0,0,1,27.27-38.5"/><path class="cls-4" d="M115,465.81c-12,4.52-22.27,19.94-22.62,35s-.34,47.89,26.92,58,41.94-12.93,45.08-32.85-2.44-37.4-13.5-50.46l-1.17,8.63c7.68,9,13.34,23.65,10,41.48S142,559.84,119.3,552.15,96.23,512,96.93,501.82s6.52-22.48,16.89-28.89Z"/><path class="cls-2" d="M199.25,122.39c3.55-17,13-22.43,13-22.43l29.7-96.11-8.24-1.69a82,82,0,0,0-28-.84l-8,1.15-23,94.84s3.45,8.43-1.69,23Z"/><path class="cls-2" d="M198.55,126.71l-3.93-.61s-.32-4.1,4.63-3.71Z"/><path class="cls-2" d="M173,120.27c-3.09,0-3.09,3.73-3.09,3.73l24.73,2.1c.17-2.89,2.09-4,4.63-3.71Z"/><polygon class="cls-2" points="198.55 126.71 149.71 484.12 146.68 484.12 113.82 472.93 171.38 124.54 198.55 126.71"/><line class="cls-2" x1="194.62" y1="126.1" x2="146.68" y2="484.11"/><path class="cls-2" d="M129.9,478.4c-18.29-5.59-25.71,12.94-27.59,24.12s-.14,37.05,18.73,43.34,30.76-5.59,33.56-22.72-4.42-38.12-16-41.78S129.9,478.4,129.9,478.4Z"/><line class="cls-2" x1="166.88" y1="151.75" x2="190.82" y2="154.42"/><line class="cls-2" x1="162.5" y1="180.08" x2="186.45" y2="182.75"/><line class="cls-2" x1="157.99" y1="205.54" x2="183.43" y2="209.62"/><line class="cls-2" x1="154.04" y1="229.5" x2="180.06" y2="234.83"/><line class="cls-2" x1="150.33" y1="251.95" x2="177.12" y2="256.78"/><line class="cls-2" x1="146.68" y1="274.05" x2="174.16" y2="278.89"/><line class="cls-2" x1="143.46" y1="293.52" x2="170.71" y2="298.41"/><line class="cls-2" x1="140.44" y1="311.81" x2="168.89" y2="318.22"/><line class="cls-2" x1="137.44" y1="329.96" x2="166.55" y2="335.73"/><line class="cls-2" x1="134.78" y1="346.06" x2="163.72" y2="352.93"/><line class="cls-2" x1="132.35" y1="360.76" x2="162.11" y2="368.84"/><line class="cls-2" x1="129.92" y1="375.46" x2="159.7" y2="383.69"/><line class="cls-2" x1="127.61" y1="389.44" x2="158.22" y2="397.92"/><line class="cls-2" x1="125.59" y1="401.69" x2="156.19" y2="411.5"/><line class="cls-2" x1="123.56" y1="413.98" x2="154.66" y2="424.46"/><line class="cls-2" x1="153.22" y1="435.22" x2="121.65" y2="425.54"/><line class="cls-2" x1="119.88" y1="436.23" x2="151.82" y2="445.7"/><line class="cls-2" x1="118.32" y1="445.7" x2="150.4" y2="456.29"/><line class="cls-2" x1="116.65" y1="455.78" x2="149.25" y2="465.81"/><line class="cls-2" x1="115.18" y1="464.69" x2="147.83" y2="475.46"/><ellipse class="cls-5" cx="171.97" cy="195.03" rx="2.04" ry="1.24" transform="matrix(0.13, -0.99, 0.99, 0.13, -43.11, 341.15)"/><ellipse class="cls-5" cx="164.59" cy="243.39" rx="2.04" ry="1.24" transform="matrix(0.13, -0.99, 0.99, 0.13, -97.54, 376.12)"/><ellipse class="cls-5" cx="157.99" cy="286.21" rx="2.04" ry="1.24" transform="translate(-145.79 407.01) rotate(-82.79)"/><ellipse class="cls-5" cx="152.21" cy="323.34" rx="2.04" ry="1.24" transform="translate(-187.68 433.74) rotate(-82.79)"/><ellipse class="cls-5" cx="140.44" cy="370.87" rx="2.04" ry="1.24" transform="translate(-245.13 463.63) rotate(-82.79)"/><ellipse class="cls-5" cx="151.58" cy="373.43" rx="2.04" ry="1.24" transform="translate(-237.93 476.93) rotate(-82.79)"/><ellipse class="cls-5" cx="139.11" cy="413.01" rx="2.04" ry="1.24" transform="translate(-288.09 499.16) rotate(-82.79)"/><ellipse class="cls-5" cx="136.3" cy="435.22" rx="2.04" ry="1.24" transform="matrix(0.13, -0.99, 0.99, 0.13, -312.59, 515.79)"/><ellipse class="cls-5" cx="133.63" cy="456.29" rx="2.04" ry="1.24" transform="translate(-335.83 531.57) rotate(-82.79)"/><line class="cls-2" x1="222.66" y1="103.68" x2="212.23" y2="99.96"/><polyline class="cls-6" points="206.72 87.93 191.75 125.23 120.51 636.99"/><polyline class="cls-6" points="214.83 56.89 188.38 125 114.38 634.6"/><polyline class="cls-6" points="224.94 22.92 184.89 124.96 108.25 632.21"/><polyline class="cls-6" points="197.8 22.49 181.47 124.45 102.11 629.82"/><polyline class="cls-6" points="188.82 52.19 178.15 123.8 95.98 627.43"/><polyline class="cls-6" points="89.85 625.04 175.08 123.94 177.16 82.42"/><circle class="cls-2" cx="89.45" cy="625.9" r="2.68"/><circle class="cls-2" cx="95.58" cy="628.29" r="2.68"/><circle class="cls-2" cx="101.71" cy="630.68" r="2.68"/><circle class="cls-2" cx="107.84" cy="633.07" r="2.68"/><circle class="cls-2" cx="113.97" cy="635.46" r="2.68"/><circle class="cls-2" cx="120.1" cy="637.85" r="2.68"/><ellipse class="cls-2" cx="227.25" cy="24.54" rx="6.17" ry="4.54" transform="translate(147.38 238.71) rotate(-75.71)"/><ellipse class="cls-2" cx="226.15" cy="24.26" rx="4.53" ry="3.58" transform="translate(146.82 237.43) rotate(-75.71)"/><path class="cls-2" d="M221.71,26.15s1.08-1.18,2.81.72c.87,1,2.7-.67,3.1-2.23s-.43-3.87-1.65-3.45c-2.43.84-2.82-.71-2.82-.71"/><ellipse class="cls-2" cx="222.43" cy="23.31" rx="2.93" ry="2.15" transform="translate(144.94 233.11) rotate(-75.71)"/><ellipse class="cls-2" cx="217.05" cy="56.35" rx="6.17" ry="4.54" transform="translate(108.87 252.77) rotate(-75.71)"/><ellipse class="cls-2" cx="215.95" cy="56.07" rx="4.53" ry="3.58" transform="translate(108.32 251.5) rotate(-75.71)"/><path class="cls-2" d="M211.5,58s1.09-1.19,2.82.71c.87,1,2.7-.66,3.1-2.23S217,52.58,215.76,53c-2.43.84-2.81-.72-2.81-.72"/><ellipse class="cls-2" cx="212.23" cy="55.12" rx="2.93" ry="2.15" transform="translate(106.43 247.18) rotate(-75.71)"/><ellipse class="cls-2" cx="209.1" cy="87.61" rx="6.17" ry="4.54" transform="translate(72.59 268.62) rotate(-75.71)"/><ellipse class="cls-2" cx="208" cy="87.33" rx="4.53" ry="3.58" transform="translate(72.04 267.34) rotate(-75.71)"/><path class="cls-2" d="M203.56,89.22s1.08-1.19,2.81.71c.87,1,2.7-.66,3.1-2.23s-.43-3.86-1.66-3.44c-2.43.84-2.81-.72-2.81-.72"/><ellipse class="cls-2" cx="204.28" cy="86.38" rx="2.93" ry="2.15" transform="translate(70.15 263.02) rotate(-75.71)"/><ellipse class="cls-2" cx="198.9" cy="22.77" rx="6.17" ry="4.54" transform="translate(127.75 209.89) rotate(-75.71)"/><ellipse class="cls-2" cx="197.8" cy="22.49" rx="4.53" ry="3.58" transform="translate(127.19 208.61) rotate(-75.71)"/><path class="cls-2" d="M193.35,24.37s1.09-1.18,2.82.72c.87,1,2.7-.66,3.1-2.23s-.43-3.87-1.66-3.44c-2.43.84-2.81-.72-2.81-.72"/><ellipse class="cls-2" cx="194.08" cy="21.54" rx="2.93" ry="2.15" transform="translate(125.3 204.3) rotate(-75.71)"/><ellipse class="cls-2" cx="191.1" cy="53.9" rx="6.17" ry="4.54" transform="translate(91.7 225.79) rotate(-75.71)"/><ellipse class="cls-2" cx="190" cy="53.62" rx="4.53" ry="3.58" transform="translate(91.14 224.51) rotate(-75.71)"/><path class="cls-2" d="M185.56,55.51s1.08-1.18,2.81.72c.87,1,2.7-.67,3.1-2.24s-.43-3.86-1.65-3.44c-2.43.84-2.82-.71-2.82-.71"/><ellipse class="cls-2" cx="186.28" cy="52.67" rx="2.93" ry="2.15" transform="translate(89.26 220.19) rotate(-75.71)"/><ellipse class="cls-2" cx="179.49" cy="83.98" rx="6.17" ry="4.54" transform="translate(53.81 237.19) rotate(-75.71)"/><ellipse class="cls-2" cx="178.39" cy="83.7" rx="4.53" ry="3.58" transform="translate(53.26 235.91) rotate(-75.71)"/><path class="cls-2" d="M174,85.58s1.08-1.18,2.81.72c.88,1,2.7-.66,3.1-2.23s-.43-3.87-1.65-3.44c-2.43.84-2.82-.72-2.82-.72"/><ellipse class="cls-2" cx="174.67" cy="82.75" rx="2.93" ry="2.15" transform="translate(51.37 231.59) rotate(-75.71)"/></g><path class="cls-2" d="M144.61,396.43a38.47,38.47,0,0,0-42,35.58c-1.4,19.65.19,45.07-.31,70.51C101.24,556.91,50.86,566.79,51,652.24c0,41.64,33.55,63.27,98.3,97.57,20.37,10.79,37.32,15.44,51.05,18.71l1.68.4a56.66,56.66,0,0,0,64.84-32.62c.14-.3.27-.62.4-.93,13.28-31.46,8.39-72.47,4.2-93.21s-14.8-65.24-14.45-95.47,20.27-57.15,16.95-84.93-35-42-75-55.06l-.71-.2C194.76,405.59,167.84,398.6,144.61,396.43Z"/></g></g></svg>