<svg xmlns="http://www.w3.org/2000/svg" viewBox="0 0 276.38 793.78"><defs><style>.cls-1{opacity:0.5;}.cls-2{fill:#693635;}.cls-2,.cls-4,.cls-6{stroke:#fff;}.cls-2,.cls-3,.cls-4,.cls-6{stroke-linecap:round;stroke-linejoin:round;}.cls-3,.cls-4,.cls-5{fill:#fff;}.cls-3{stroke:#693635;}.cls-6{fill:none;}</style></defs><g id="Capa_2" data-name="Capa 2"><g id="Capa_1-2" data-name="Capa 1"><g class="cls-1"><path class="cls-2" d="M91.47,397.09c18.35-1.1,35.08-1.11,35.08-1.11v9.34"/><path class="cls-2" d="M251.06,27.05l-8.91-1.39-1.34,5.23h9.25"/><path class="cls-2" d="M250.06,36.23c.87,1.89.47,1.78,2.59,1.78,3,0,8.11.06,9.65-6.73.64-2.84.27-4.47-.41-5.62a6.33,6.33,0,0,0-4.05-3.27"/><path class="cls-2" d="M253.7,22c-1.62,0-6.13,14.44-3.1,14.44s8.12-.44,9.65-7.22S258.28,22,253.7,22Z"/><path class="cls-2" d="M240.85,58.09,232,56.7l-1.34,5.23h9.25"/><path class="cls-2" d="M239.86,67.26c.86,1.89.47,1.78,2.59,1.78,3,0,8.11.06,9.64-6.72.65-2.85.27-4.48-.4-5.62a6.35,6.35,0,0,0-4.05-3.28"/><path class="cls-2" d="M243.5,53.05c-1.62,0-6.13,14.44-3.1,14.44s8.11-.43,9.65-7.22S248.08,53.05,243.5,53.05Z"/><path class="cls-2" d="M232,89.12l-8.9-1.38L221.71,93H231"/><path class="cls-2" d="M231,98.3c.86,1.89.47,1.78,2.58,1.78,3,0,8.12.06,9.65-6.73.65-2.84.27-4.47-.4-5.62a6.33,6.33,0,0,0-4-3.27"/><path class="cls-2" d="M234.6,84.09c-1.62,0-6.13,14.44-3.1,14.44s8.11-.44,9.65-7.22S239.18,84.09,234.6,84.09Z"/><path class="cls-2" d="M199.25,122.5,159.7,411.09l38.85-4.38c2-18.18-5-20.81-5-20.81-5.59,0-24.23,0-24.93-17s31.92-216.7,35.88-241.11c5.37-22.89,18.2-24,18.2-24l26.79-93.14L241.93,4"/><path class="cls-2" d="M169.75,792s48.26-15.51,57.86-19,26.33-6.06,39.61-37.52,8.39-72.47,4.2-93.2S256.62,577,257,546.8s20.27-57.14,16.95-84.93-35.12-42.12-75.37-55.16l-38.85,4.38"/><path class="cls-2" d="M159.7,411.09c43,17.75,68.61,32.1,64.88,66.4s-27,59.47-22.37,98.15,25.63,121.16,7,173.82S153.92,804,92.32,772.76,6,715,.89,660.45,42.37,543.36,51.22,512.89s2.8-71.61,5.59-88.32,17.19-37,68.78-22.77"/><polyline class="cls-2" points="151.77 652.36 154.56 650.5 155.84 632.9 72.25 596.78 69.18 597.77"/><path class="cls-2" d="M69.18,597.77,153,633.47l-1.22,18.88s-9.09-6.11-16.26-5.59-18.65.16-33.79-6.12-16-16.56-24.92-20.07l-8.92-3.52Z"/><polyline class="cls-3" points="88.36 613.31 90.23 612.44 126.23 625.49 126.23 628.05 124.54 628.69"/><polygon class="cls-3" points="88.36 613.31 124.54 626.36 124.54 628.69 88.36 615.7 88.36 613.31"/><path class="cls-2" d="M151.63,470.11c10.66,8.06,19.4,30.08,17,53.15s-20.5,52.9-50,40.89c-28.31-11.53-31.9-51.69-29.71-66.76a51.59,51.59,0,0,1,27.27-38.5"/><path class="cls-4" d="M115,465.92c-12,4.53-22.27,19.94-22.62,35s-.34,47.88,26.92,58,41.94-12.94,45.08-32.86-2.44-37.4-13.5-50.45l-1.17,8.63c7.68,9,13.34,23.65,10,41.47S142,560,119.3,552.27s-23.07-40.2-22.37-50.33,6.52-22.49,16.89-28.9Z"/><path class="cls-2" d="M199.25,122.5c3.55-17,13-22.42,13-22.42L241.93,4l-8.24-1.69a81.49,81.49,0,0,0-28-.84l-8,1.14-23,94.84s3.45,8.44-1.69,23Z"/><path class="cls-2" d="M198.55,126.82l-3.93-.61s-.32-4.09,4.63-3.71Z"/><path class="cls-2" d="M173,120.38c-3.09,0-3.09,3.73-3.09,3.73l24.73,2.1c.17-2.89,2.09-4,4.63-3.71Z"/><polygon class="cls-2" points="198.55 126.82 149.71 484.23 146.68 484.23 113.82 473.04 171.38 124.65 198.55 126.82"/><line class="cls-2" x1="194.62" y1="126.21" x2="146.68" y2="484.23"/><path class="cls-2" d="M129.9,478.52c-18.29-5.59-25.71,12.93-27.59,24.11s-.14,37,18.73,43.34,30.76-5.59,33.56-22.71-4.42-38.13-16-41.79S129.9,478.52,129.9,478.52Z"/><line class="cls-2" x1="166.88" y1="151.87" x2="190.82" y2="154.53"/><line class="cls-2" x1="162.5" y1="180.19" x2="186.45" y2="182.86"/><line class="cls-2" x1="157.99" y1="205.65" x2="183.43" y2="209.73"/><line class="cls-2" x1="154.04" y1="229.61" x2="180.06" y2="234.95"/><line class="cls-2" x1="150.33" y1="252.06" x2="177.12" y2="256.89"/><line class="cls-2" x1="146.68" y1="274.16" x2="174.16" y2="279.01"/><line class="cls-2" x1="143.46" y1="293.63" x2="170.71" y2="298.52"/><line class="cls-2" x1="140.44" y1="311.92" x2="168.89" y2="318.34"/><line class="cls-2" x1="137.44" y1="330.07" x2="166.55" y2="335.84"/><line class="cls-2" x1="134.78" y1="346.17" x2="163.72" y2="353.04"/><line class="cls-2" x1="132.35" y1="360.87" x2="162.11" y2="368.96"/><line class="cls-2" x1="129.92" y1="375.57" x2="159.7" y2="383.8"/><line class="cls-2" x1="127.61" y1="389.56" x2="158.22" y2="398.03"/><line class="cls-2" x1="125.59" y1="401.8" x2="156.19" y2="411.61"/><line class="cls-2" x1="123.56" y1="414.09" x2="154.66" y2="424.57"/><line class="cls-2" x1="153.22" y1="435.33" x2="121.65" y2="425.65"/><line class="cls-2" x1="119.88" y1="436.35" x2="151.82" y2="445.81"/><line class="cls-2" x1="118.32" y1="445.81" x2="150.4" y2="456.41"/><line class="cls-2" x1="116.65" y1="455.89" x2="149.25" y2="465.92"/><line class="cls-2" x1="115.18" y1="464.8" x2="147.83" y2="475.57"/><ellipse class="cls-5" cx="171.97" cy="195.14" rx="2.04" ry="1.24" transform="matrix(0.13, -0.99, 0.99, 0.13, -43.22, 341.24)"/><ellipse class="cls-5" cx="164.59" cy="243.5" rx="2.04" ry="1.24" transform="translate(-97.65 376.22) rotate(-82.79)"/><ellipse class="cls-5" cx="157.99" cy="286.32" rx="2.04" ry="1.24" transform="translate(-145.9 407.11) rotate(-82.79)"/><ellipse class="cls-5" cx="152.21" cy="323.45" rx="2.04" ry="1.24" transform="translate(-187.8 433.84) rotate(-82.79)"/><ellipse class="cls-5" cx="140.44" cy="370.99" rx="2.04" ry="1.24" transform="translate(-245.25 463.73) rotate(-82.79)"/><ellipse class="cls-5" cx="151.58" cy="373.54" rx="2.04" ry="1.24" transform="translate(-238.04 477.02) rotate(-82.79)"/><ellipse class="cls-5" cx="139.11" cy="413.12" rx="2.04" ry="1.24" transform="matrix(0.13, -0.99, 0.99, 0.13, -288.2, 499.26)"/><ellipse class="cls-5" cx="136.3" cy="435.33" rx="2.04" ry="1.24" transform="translate(-312.7 515.89) rotate(-82.79)"/><ellipse class="cls-5" cx="133.63" cy="456.41" rx="2.04" ry="1.24" transform="translate(-335.94 531.67) rotate(-82.79)"/><line class="cls-2" x1="222.66" y1="103.79" x2="212.23" y2="100.08"/><polyline class="cls-6" points="206.72 88.05 191.75 125.35 120.51 637.1"/><polyline class="cls-6" points="214.83 57 188.38 125.11 114.38 634.71"/><polyline class="cls-6" points="224.94 23.04 184.89 125.08 108.25 632.32"/><polyline class="cls-6" points="197.8 22.6 181.47 124.56 102.11 629.93"/><polyline class="cls-6" points="188.82 52.31 178.15 123.92 95.98 627.54"/><polyline class="cls-6" points="89.85 625.15 175.08 124.05 177.16 82.53"/><circle class="cls-2" cx="89.45" cy="626.01" r="2.68"/><circle class="cls-2" cx="95.58" cy="628.4" r="2.68"/><circle class="cls-2" cx="101.71" cy="630.79" r="2.68"/><circle class="cls-2" cx="107.84" cy="633.18" r="2.68"/><circle class="cls-2" cx="113.97" cy="635.57" r="2.68"/><circle class="cls-2" cx="120.1" cy="637.96" r="2.68"/><ellipse class="cls-2" cx="227.25" cy="24.66" rx="6.17" ry="4.54" transform="translate(147.27 238.79) rotate(-75.71)"/><ellipse class="cls-2" cx="226.15" cy="24.37" rx="4.53" ry="3.58" transform="translate(146.71 237.51) rotate(-75.71)"/><path class="cls-2" d="M221.71,26.26s1.08-1.18,2.81.72c.87,1,2.7-.67,3.1-2.23s-.43-3.87-1.65-3.44c-2.43.84-2.82-.72-2.82-.72"/><ellipse class="cls-2" cx="222.43" cy="23.43" rx="2.93" ry="2.15" transform="translate(144.83 233.19) rotate(-75.71)"/><ellipse class="cls-2" cx="217.05" cy="56.46" rx="6.17" ry="4.54" transform="translate(108.76 252.86) rotate(-75.71)"/><ellipse class="cls-2" cx="215.95" cy="56.18" rx="4.53" ry="3.58" transform="translate(108.21 251.58) rotate(-75.71)"/><path class="cls-2" d="M211.5,58.07s1.09-1.18,2.82.72c.87,1,2.7-.67,3.1-2.24s-.43-3.86-1.66-3.44c-2.43.84-2.81-.71-2.81-.71"/><ellipse class="cls-2" cx="212.23" cy="55.23" rx="2.93" ry="2.15" transform="translate(106.32 247.26) rotate(-75.71)"/><ellipse class="cls-2" cx="209.1" cy="87.72" rx="6.17" ry="4.54" transform="translate(72.48 268.7) rotate(-75.71)"/><ellipse class="cls-2" cx="208" cy="87.44" rx="4.53" ry="3.58" transform="translate(71.93 267.42) rotate(-75.71)"/><path class="cls-2" d="M203.56,89.33s1.08-1.18,2.81.72c.87,1,2.7-.67,3.1-2.24S209,84,207.81,84.37c-2.43.84-2.81-.71-2.81-.71"/><ellipse class="cls-2" cx="204.28" cy="86.49" rx="2.93" ry="2.15" transform="translate(70.04 263.1) rotate(-75.71)"/><ellipse class="cls-2" cx="198.9" cy="22.88" rx="6.17" ry="4.54" transform="translate(127.64 209.98) rotate(-75.71)"/><ellipse class="cls-2" cx="197.8" cy="22.6" rx="4.53" ry="3.58" transform="translate(127.08 208.7) rotate(-75.71)"/><path class="cls-2" d="M193.35,24.49s1.09-1.18,2.82.71c.87,1,2.7-.66,3.1-2.23s-.43-3.86-1.66-3.44c-2.43.84-2.81-.72-2.81-.72"/><ellipse class="cls-2" cx="194.08" cy="21.65" rx="2.93" ry="2.15" transform="translate(125.2 204.38) rotate(-75.71)"/><ellipse class="cls-2" cx="191.1" cy="54.01" rx="6.17" ry="4.54" transform="translate(91.59 225.87) rotate(-75.71)"/><ellipse class="cls-2" cx="190" cy="53.73" rx="4.53" ry="3.58" transform="translate(91.04 224.6) rotate(-75.71)"/><path class="cls-2" d="M185.56,55.62s1.08-1.18,2.81.72c.87,1,2.7-.67,3.1-2.23s-.43-3.87-1.65-3.44C187.39,51.51,187,50,187,50"/><ellipse class="cls-2" cx="186.28" cy="52.79" rx="2.93" ry="2.15" transform="translate(89.15 220.28) rotate(-75.71)"/><ellipse class="cls-2" cx="179.49" cy="84.09" rx="6.17" ry="4.54" transform="translate(53.71 237.28) rotate(-75.71)"/><ellipse class="cls-2" cx="178.39" cy="83.81" rx="4.53" ry="3.58" transform="translate(53.15 236) rotate(-75.71)"/><path class="cls-2" d="M174,85.7s1.08-1.18,2.81.71c.88,1,2.7-.66,3.1-2.23s-.43-3.86-1.65-3.44c-2.43.84-2.82-.72-2.82-.72"/><ellipse class="cls-2" cx="174.67" cy="82.86" rx="2.93" ry="2.15" transform="translate(51.26 231.68) rotate(-75.71)"/></g><path class="cls-2" d="M233.69,2.16a82,82,0,0,0-28-.84l-8,1.15-23,94.84s3.45,8.43-1.69,23l26.27,2.12c3.55-17,13-22.43,13-22.43l29.7-96.11ZM186.74,85.24c-.68,2.65-2.8,4.39-4.74,3.89s-3-3-2.31-5.68,2.8-4.39,4.74-3.89S187.41,82.6,186.74,85.24Zm7.89-30.44c-.68,2.64-2.8,4.38-4.75,3.89s-3-3-2.3-5.69,2.8-4.38,4.74-3.89S195.3,52.15,194.63,54.8Zm7.79-31.14c-.67,2.65-2.8,4.39-4.74,3.89s-3-3-2.3-5.68,2.79-4.39,4.74-3.89S203.09,21,202.42,23.66Zm10.2,64.85c-.67,2.64-2.79,4.38-4.74,3.88s-3-3-2.3-5.68,2.79-4.38,4.74-3.89S213.29,85.86,212.62,88.51Zm7.95-31.26c-.67,2.64-2.8,4.38-4.74,3.89s-3-3-2.3-5.69,2.79-4.38,4.74-3.89S221.24,54.6,220.57,57.25Zm10.21-31.81c-.68,2.64-2.8,4.38-4.75,3.89s-3-3-2.3-5.68,2.8-4.39,4.74-3.89S231.45,22.8,230.78,25.44Z"/></g></g></svg>