<?xml version="1.0" encoding="UTF-8"?>
<svg width="44px" height="44px" viewBox="0 0 44 44" version="1.1" xmlns="http://www.w3.org/2000/svg" xmlns:xlink="http://www.w3.org/1999/xlink">
    <title>social-twitter 2</title>
    <g id="GOLD" stroke="none" stroke-width="1" fill="none" fill-rule="evenodd">
        <g id="0.desktop" transform="translate(-988.000000, -617.000000)">
            <g id="intro" transform="translate(130.645000, -119.000000)">
                <g id="share" transform="translate(525.355000, 722.000000)">
                    <g id="social-twitter" transform="translate(332.000000, 14.000000)">
                        <circle id="Oval-Copy-2" fill="#FFFFFF" opacity="0.5" cx="22" cy="22" r="22"></circle>
                        <path d="M37,13.8412308 C35.884375,14.3230769 34.695625,14.6424615 33.45625,14.7975385 C34.73125,14.048 35.704375,12.8701538 36.161875,11.4504615 C34.973125,12.1483077 33.660625,12.6412308 32.261875,12.9163077 C31.133125,11.7329231 29.524375,11 27.769375,11 C24.364375,11 21.623125,13.7212308 21.623125,17.0572308 C21.623125,17.5372308 21.664375,17.9987692 21.765625,18.4381538 C16.6525,18.1926154 12.128125,15.7796923 9.08875,12.104 C8.558125,13.0104615 8.246875,14.048 8.246875,15.1649231 C8.246875,17.2621538 9.34375,19.1212308 10.97875,20.1975385 C9.990625,20.1790769 9.02125,19.8966154 8.2,19.4516923 C8.2,19.4701538 8.2,19.4941538 8.2,19.5181538 C8.2,22.4609231 10.331875,24.9052308 13.1275,25.4683077 C12.626875,25.6030769 12.08125,25.6676923 11.515,25.6676923 C11.12125,25.6676923 10.72375,25.6455385 10.350625,25.5643077 C11.1475,27.9624615 13.40875,29.7255385 16.0975,29.7827692 C14.005,31.3944615 11.348125,32.3655385 8.471875,32.3655385 C7.9675,32.3655385 7.48375,32.3433846 7,32.2824615 C9.724375,34.0123077 12.953125,35 16.435,35 C27.7525,35 33.94,25.7692308 33.94,17.768 C33.94,17.5003077 33.930625,17.2418462 33.9175,16.9852308 C35.138125,16.1323077 36.16375,15.0670769 37,13.8412308 Z" id="twitter" fill="#6A3534" fill-rule="nonzero"></path>
                    </g>
                </g>
            </g>
        </g>
    </g>
</svg>