<?xml version="1.0" encoding="UTF-8"?>
<svg width="44px" height="44px" viewBox="0 0 44 44" version="1.1" xmlns="http://www.w3.org/2000/svg" xmlns:xlink="http://www.w3.org/1999/xlink">
    <title>social-instagram 2</title>
    <g id="GOLD" stroke="none" stroke-width="1" fill="none" fill-rule="evenodd">
        <g id="0.desktop" transform="translate(-928.000000, -617.000000)">
            <g id="intro" transform="translate(130.645000, -119.000000)">
                <g id="share" transform="translate(525.355000, 722.000000)">
                    <g id="social-instagram" transform="translate(272.000000, 14.000000)">
                        <circle id="Oval-Copy" fill="#FFFFFF" opacity="0.5" cx="22" cy="22" r="22"></circle>
                        <path d="M27.671875,10 C31.1611328,10 34,12.8388672 34,16.328125 L34,16.328125 L34,27.671875 C34,31.1611328 31.1611328,34 27.671875,34 L27.671875,34 L16.328125,34 C12.8388672,34 10,31.1611328 10,27.671875 L10,27.671875 L10,16.328125 C10,12.8388672 12.8388672,10 16.328125,10 L16.328125,10 Z M25.5625,14.21875 L18.4375,14.21875 C16.1113281,14.21875 14.21875,16.1113281 14.21875,18.4375 L14.21875,18.4375 L14.21875,25.5625 C14.21875,27.8886719 16.1113281,29.78125 18.4375,29.78125 L18.4375,29.78125 L25.5625,29.78125 C27.8886719,29.78125 29.78125,27.8886719 29.78125,25.5625 L29.78125,25.5625 L29.78125,18.4375 C29.78125,16.1113281 27.8886719,14.21875 25.5625,14.21875 L25.5625,14.21875 Z M25.5625,15.625 C27.1134033,15.625 28.375,16.8865967 28.375,18.4375 L28.375,18.4375 L28.375,25.5625 C28.375,27.1134033 27.1134033,28.375 25.5625,28.375 L25.5625,28.375 L18.4375,28.375 C16.8865967,28.375 15.625,27.1134033 15.625,25.5625 L15.625,25.5625 L15.625,18.4375 C15.625,16.8865967 16.8865967,15.625 18.4375,15.625 L18.4375,15.625 Z M22,18.484375 C20.0614624,18.484375 18.484375,20.0614624 18.484375,22 C18.484375,23.9385376 20.0614624,25.515625 22,25.515625 C23.9385376,25.515625 25.515625,23.9385376 25.515625,22 C25.515625,20.0614624 23.9385376,18.484375 22,18.484375 Z M22,19.890625 C23.164917,19.890625 24.109375,20.835083 24.109375,22 C24.109375,23.164917 23.164917,24.109375 22,24.109375 C20.835083,24.109375 19.890625,23.164917 19.890625,22 C19.890625,20.835083 20.835083,19.890625 22,19.890625 Z M26.03125,17.265625 C25.6428833,17.265625 25.328125,17.5803833 25.328125,17.96875 C25.328125,18.3571167 25.6428833,18.671875 26.03125,18.671875 C26.4196167,18.671875 26.734375,18.3571167 26.734375,17.96875 C26.734375,17.5803833 26.4196167,17.265625 26.03125,17.265625 Z" id="instagram" fill="#6A3534" fill-rule="nonzero"></path>
                    </g>
                </g>
            </g>
        </g>
    </g>
</svg>