<?xml version="1.0" encoding="UTF-8"?>
<svg width="44px" height="44px" viewBox="0 0 44 44" version="1.1" xmlns="http://www.w3.org/2000/svg" xmlns:xlink="http://www.w3.org/1999/xlink">
    <title>social-facebook 2</title>
    <g id="GOLD" stroke="none" stroke-width="1" fill="none" fill-rule="evenodd">
        <g id="0.desktop" transform="translate(-868.000000, -617.000000)">
            <g id="intro" transform="translate(130.645000, -119.000000)">
                <g id="share" transform="translate(525.355000, 722.000000)">
                    <g id="social-facebook" transform="translate(212.000000, 14.000000)">
                        <circle id="Oval" fill="#FFFFFF" opacity="0.5" cx="22" cy="22" r="22"></circle>
                        <path d="M27.5104582,10.0049936 L24.3923493,10 C20.8892609,10 18.6254113,12.3182797 18.6254113,15.9064324 L18.6254113,18.6296932 L15.4902923,18.6296932 C15.2193808,18.6296932 15,18.8489123 15,19.1193159 L15,23.0650105 C15,23.335414 15.2196309,23.5543834 15.4902923,23.5543834 L18.6254113,23.5543834 L18.6254113,33.510627 C18.6254113,33.7810306 18.8447921,34 19.1157036,34 L23.2061421,34 C23.4770536,34 23.6964344,33.7807809 23.6964344,33.510627 L23.6964344,23.5543834 L27.3621197,23.5543834 C27.6330312,23.5543834 27.852412,23.335414 27.852412,23.0650105 L27.8539129,19.1193159 C27.8539129,18.9894822 27.802132,18.8651415 27.7103273,18.7732593 C27.6185226,18.681377 27.493448,18.6296932 27.3633705,18.6296932 L23.6964344,18.6296932 L23.6964344,16.321151 C23.6964344,15.2115727 23.9613423,14.6482944 25.4094556,14.6482944 L27.5099579,14.6475453 C27.7806192,14.6475453 28,14.4283262 28,14.1581723 L28,10.4943666 C28,10.2244624 27.7808694,10.005493 27.5104582,10.0049936 Z" id="facebook" fill="#6A3534" fill-rule="nonzero"></path>
                    </g>
                </g>
            </g>
        </g>
    </g>
</svg>