<?xml version="1.0" encoding="UTF-8"?>
<svg width="791px" height="322px" viewBox="0 0 791 322" version="1.1" xmlns="http://www.w3.org/2000/svg" xmlns:xlink="http://www.w3.org/1999/xlink">
    <title>Group 13</title>
    <g id="GOLD" stroke="none" stroke-width="1" fill="none" fill-rule="evenodd" opacity="0.100000001">
        <g id="0.desktop" transform="translate(-278.000000, -50.000000)" fill="#FFFFFF">
            <g id="intro" transform="translate(130.645000, 19.000000)">
                <g id="Group-12" transform="translate(147.355000, 31.000000)">
                    <path d="M503.948169,321.687 C447.648435,321.687 403.117457,307.527253 360.053834,293.833816 C317.31359,280.243668 273.119074,266.191222 217.589469,266.191222 C162.059863,266.191222 117.865348,280.243668 75.1251043,293.832813 C52.2212683,301.116258 28.537958,308.647398 3.33121447,313.963319 L2.305,312.562387 C27.3023883,307.290589 50.888498,299.792542 73.6951333,292.539182 C116.760626,278.846747 161.291605,264.687 217.589469,264.687 C273.887333,264.687 318.418312,278.846747 361.483804,292.539182 C404.222179,306.129329 448.416694,320.182778 503.948169,320.182778 C559.477775,320.182778 603.67229,306.129329 646.410664,292.539182 C689.474287,278.846747 734.005266,264.687 790.305,264.687 L790.305,266.191222 C734.773525,266.191222 690.57901,280.243668 647.840635,293.833816 C604.777012,307.527253 560.246033,321.687 503.948169,321.687" id="Fill-11"></path>
                    <path d="M503.948169,311.687 C447.648435,311.687 403.117457,297.527502 360.053834,283.834306 C317.31359,270.244397 273.119074,256.191196 217.589469,256.191196 C162.059863,256.191196 117.865348,270.244397 75.1269736,283.834306 C52.2231376,291.116619 28.537958,298.647627 3.33121447,303.963455 L2.305,302.56355 C27.3023883,297.291845 50.888498,289.791924 73.6970026,282.540697 C116.760626,268.846498 161.291605,254.687 217.589469,254.687 C273.887333,254.687 318.418312,268.846498 361.483804,282.540697 C404.222179,296.129603 448.416694,310.182804 503.948169,310.182804 C559.477775,310.182804 603.67229,296.129603 646.410664,282.540697 C689.474287,268.846498 734.005266,254.687 790.305,254.687 L790.305,256.191196 C734.773525,256.191196 690.580879,270.244397 647.840635,283.834306 C604.777012,297.527502 560.246033,311.687 503.948169,311.687" id="Fill-12"></path>
                    <path d="M503.948169,301.687 C447.648435,301.687 403.117457,287.526251 360.053834,273.833816 C317.31359,260.243668 273.119074,246.191222 217.589469,246.191222 C162.059863,246.191222 117.865348,260.242665 75.1269736,273.832813 C52.2231376,281.115255 28.5398272,288.646395 3.33121447,293.961314 L2.305,292.561384 C27.3042575,287.290589 50.888498,279.791539 73.6970026,272.538179 C116.760626,258.845744 161.291605,244.687 217.589469,244.687 C273.887333,244.687 318.418312,258.846747 361.483804,272.539182 C404.222179,286.129329 448.416694,300.182778 503.948169,300.182778 C559.477775,300.182778 603.67229,286.129329 646.410664,272.539182 C689.474287,258.846747 734.005266,244.687 790.305,244.687 L790.305,246.191222 C734.773525,246.191222 690.57901,260.243668 647.840635,273.833816 C604.777012,287.526251 560.246033,301.687 503.948169,301.687" id="Fill-13"></path>
                    <path d="M503.948169,291.687 C447.648435,291.687 403.117457,277.527253 360.053834,263.834818 C317.31359,250.244671 273.119074,236.191222 217.589469,236.191222 C162.059863,236.191222 117.865348,250.243668 75.1251043,263.833816 C52.2212683,271.116258 28.537958,278.647398 3.33121447,283.963319 L2.305,282.562387 C27.3023883,277.291592 50.888498,269.792542 73.6951333,262.540184 C116.760626,248.846747 161.291605,234.687 217.589469,234.687 C273.887333,234.687 318.418312,248.846747 361.483804,262.540184 C404.222179,276.129329 448.416694,290.182778 503.948169,290.182778 C559.477775,290.182778 603.67229,276.129329 646.410664,262.540184 C689.474287,248.846747 734.005266,234.687 790.305,234.687 L790.305,236.191222 C734.773525,236.191222 690.57901,250.244671 647.840635,263.834818 C604.777012,277.527253 560.246033,291.687 503.948169,291.687" id="Fill-14"></path>
                    <path d="M503.948169,281.687 C447.648435,281.687 403.117457,267.526251 360.053834,253.833816 C317.31359,240.243668 273.119074,226.191222 217.589469,226.191222 C162.059863,226.191222 117.867218,240.243668 75.1269736,253.832813 C52.2231376,261.116258 28.5398272,268.647398 3.33121447,273.962317 L2.305,272.562387 C27.3042575,267.291592 50.8903672,259.792542 73.6988718,252.539182 C116.762495,238.846747 161.291605,224.687 217.589469,224.687 C273.887333,224.687 318.418312,238.846747 361.483804,252.540184 C404.222179,266.130332 448.416694,280.182778 503.948169,280.182778 C559.477775,280.182778 603.67229,266.130332 646.410664,252.540184 C689.474287,238.846747 734.005266,224.687 790.305,224.687 L790.305,226.191222 C734.773525,226.191222 690.57901,240.243668 647.840635,253.833816 C604.777012,267.526251 560.246033,281.687 503.948169,281.687" id="Fill-15"></path>
                    <path d="M503.948169,271.687 C447.648435,271.687 403.117457,257.527253 360.053834,243.834818 C317.31359,230.244671 273.119074,216.191222 217.589469,216.191222 C162.059863,216.191222 117.865348,230.243668 75.1251043,243.833816 C52.2212683,251.116258 28.537958,258.647398 3.33121447,263.963319 L2.305,262.562387 C27.3023883,257.291592 50.888498,249.792542 73.6951333,242.540184 C116.760626,228.846747 161.291605,214.687 217.589469,214.687 C273.887333,214.687 318.418312,228.846747 361.483804,242.540184 C404.222179,256.129329 448.416694,270.182778 503.948169,270.182778 C559.477775,270.182778 603.67229,256.129329 646.410664,242.540184 C689.474287,228.846747 734.005266,214.687 790.305,214.687 L790.305,216.191222 C734.773525,216.191222 690.57901,230.244671 647.840635,243.834818 C604.777012,257.527253 560.246033,271.687 503.948169,271.687" id="Fill-16"></path>
                    <path d="M503.948169,261.687 C447.648435,261.687 403.117457,247.526251 360.053834,233.833816 C317.31359,220.243668 273.119074,206.191222 217.589469,206.191222 C162.059863,206.191222 117.867218,220.243668 75.1269736,233.832813 C52.2231376,241.116258 28.5398272,248.647398 3.33121447,253.962317 L2.305,252.562387 C27.3042575,247.291592 50.8903672,239.792542 73.6988718,232.539182 C116.762495,218.845744 161.291605,204.687 217.589469,204.687 C273.887333,204.687 318.418312,218.846747 361.483804,232.540184 C404.222179,246.130332 448.416694,260.182778 503.948169,260.182778 C559.477775,260.182778 603.67229,246.130332 646.410664,232.540184 C689.474287,218.846747 734.005266,204.687 790.305,204.687 L790.305,206.191222 C734.773525,206.191222 690.57901,220.243668 647.840635,233.833816 C604.777012,247.526251 560.246033,261.687 503.948169,261.687" id="Fill-17"></path>
                    <path d="M503.948169,251.687 C447.648435,251.687 403.117457,237.527004 360.053834,223.834328 C317.31359,210.243942 273.119074,196.191249 217.589469,196.191249 C162.059863,196.191249 117.865348,210.242939 75.1269736,223.833326 C52.2231376,231.115896 28.537958,238.647168 3.33121447,243.963184 L2.305,242.562227 C27.3023883,237.291339 50.888498,229.792157 73.6970026,222.539672 C116.760626,208.845993 161.291605,194.687 217.589469,194.687 C273.887333,194.687 318.418312,208.845993 361.483804,222.539672 C404.222179,236.130058 448.416694,250.182751 503.948169,250.182751 C559.477775,250.182751 603.67229,236.130058 646.410664,222.539672 C689.474287,208.845993 734.005266,194.687 790.305,194.687 L790.305,196.191249 C734.773525,196.191249 690.57901,210.243942 647.840635,223.834328 C604.777012,237.527004 560.246033,251.687 503.948169,251.687" id="Fill-18"></path>
                    <path d="M503.948169,241.687 C447.648435,241.687 403.117457,227.527253 360.053834,213.833816 C317.31359,200.243668 273.119074,186.191222 217.589469,186.191222 C162.059863,186.191222 117.865348,200.243668 75.1269736,213.833816 C52.2231376,221.116258 28.537958,228.647398 3.33121447,233.962317 L2.305,232.562387 C27.3023883,227.291592 50.888498,219.791539 73.6970026,212.539182 C116.760626,198.846747 161.291605,184.687 217.589469,184.687 C273.887333,184.687 318.418312,198.846747 361.483804,212.540184 C404.222179,226.129329 448.416694,240.182778 503.948169,240.182778 C559.477775,240.182778 603.67229,226.129329 646.410664,212.540184 C689.474287,198.846747 734.005266,184.687 790.305,184.687 L790.305,186.191222 C734.773525,186.191222 690.57901,200.243668 647.840635,213.833816 C604.777012,227.527253 560.246033,241.687 503.948169,241.687" id="Fill-19"></path>
                    <path d="M503.948169,231.687 C447.648435,231.687 403.117457,217.527253 360.053834,203.833816 C317.31359,190.243668 273.119074,176.191222 217.589469,176.191222 C162.059863,176.191222 117.865348,190.243668 75.1269736,203.833816 C52.2231376,211.116258 28.537958,218.647398 3.33121447,223.962317 L2.305,222.562387 C27.3023883,217.291592 50.888498,209.791539 73.6970026,202.539182 C116.760626,188.846747 161.291605,174.687 217.589469,174.687 C273.887333,174.687 318.418312,188.846747 361.483804,202.540184 C404.222179,216.130332 448.416694,230.182778 503.948169,230.182778 C559.477775,230.182778 603.67229,216.130332 646.410664,202.540184 C689.474287,188.846747 734.005266,174.687 790.305,174.687 L790.305,176.191222 C734.773525,176.191222 690.57901,190.243668 647.840635,203.833816 C604.777012,217.527253 560.246033,231.687 503.948169,231.687" id="Fill-20"></path>
                    <path d="M503.948169,221.687 C447.648435,221.687 403.117457,207.527253 360.053834,193.834818 C317.31359,180.243668 273.119074,166.191222 217.589469,166.191222 C162.059863,166.191222 117.865348,180.243668 75.1269736,193.833816 C52.2231376,201.116258 28.537958,208.647398 3.33121447,213.963319 L2.305,212.56339 C27.3042575,207.291592 50.888498,199.791539 73.6970026,192.540184 C116.760626,178.846747 161.291605,164.687 217.589469,164.687 C273.887333,164.687 318.418312,178.846747 361.483804,192.540184 C404.222179,206.130332 448.416694,220.182778 503.948169,220.182778 C559.477775,220.182778 603.67229,206.130332 646.410664,192.540184 C689.474287,178.846747 734.005266,164.687 790.305,164.687 L790.305,166.191222 C734.773525,166.191222 690.57901,180.243668 647.840635,193.834818 C604.777012,207.527253 560.246033,221.687 503.948169,221.687" id="Fill-21"></path>
                    <path d="M503.948169,211.687 C447.648435,211.687 403.117457,197.527004 360.053834,183.834328 C317.31359,170.243942 273.119074,156.191249 217.589469,156.191249 C162.059863,156.191249 117.865348,170.242939 75.1269736,183.833326 C52.2231376,191.115896 28.537958,198.647168 3.33121447,203.962181 L2.305,202.562227 C27.3023883,197.291339 50.888498,189.791154 73.6970026,182.539672 C116.760626,168.845993 161.291605,154.687 217.589469,154.687 C273.887333,154.687 318.418312,168.845993 361.483804,182.539672 C404.222179,196.130058 448.416694,210.182751 503.948169,210.182751 C559.477775,210.182751 603.67229,196.130058 646.410664,182.539672 C689.474287,168.845993 734.005266,154.687 790.305,154.687 L790.305,156.191249 C734.773525,156.191249 690.57901,170.243942 647.840635,183.834328 C604.777012,197.527004 560.246033,211.687 503.948169,211.687" id="Fill-22"></path>
                    <path d="M503.948169,201.687 C447.648435,201.687 403.117457,187.527253 360.053834,173.833816 C317.31359,160.243668 273.119074,146.191222 217.589469,146.191222 C162.059863,146.191222 117.865348,160.243668 75.1269736,173.833816 C52.2231376,181.116258 28.537958,188.647398 3.33121447,193.962317 L2.305,192.562387 C27.3023883,187.290589 50.888498,179.791539 73.6970026,172.539182 C116.760626,158.846747 161.291605,144.687 217.589469,144.687 C273.887333,144.687 318.418312,158.846747 361.483804,172.540184 C404.222179,186.130332 448.416694,200.182778 503.948169,200.182778 C559.477775,200.182778 603.67229,186.130332 646.410664,172.540184 C689.474287,158.846747 734.005266,144.687 790.305,144.687 L790.305,146.191222 C734.773525,146.191222 690.57901,160.243668 647.840635,173.833816 C604.777012,187.527253 560.246033,201.687 503.948169,201.687" id="Fill-23"></path>
                    <path d="M503.948169,191.687 C447.648435,191.687 403.117457,177.527253 360.053834,163.833816 C317.31359,150.243668 273.119074,136.191222 217.589469,136.191222 C162.059863,136.191222 117.865348,150.243668 75.1251043,163.833816 C52.2212683,171.116258 28.537958,178.647398 3.33121447,183.962317 L2.305,182.562387 C27.3023883,177.291592 50.888498,169.791539 73.6951333,162.539182 C116.760626,148.846747 161.291605,134.687 217.589469,134.687 C273.887333,134.687 318.418312,148.846747 361.483804,162.540184 C404.222179,176.130332 448.416694,190.182778 503.948169,190.182778 C559.477775,190.182778 603.67229,176.130332 646.410664,162.540184 C689.474287,148.846747 734.005266,134.687 790.305,134.687 L790.305,136.191222 C734.773525,136.191222 690.57901,150.243668 647.840635,163.833816 C604.777012,177.527253 560.246033,191.687 503.948169,191.687" id="Fill-24"></path>
                    <path d="M503.948169,180.687 C447.648435,180.687 403.117457,166.527253 360.053834,152.833816 C317.31359,139.243668 273.119074,125.191222 217.589469,125.191222 C162.059863,125.191222 117.865348,139.243668 75.1251043,152.833816 C52.2212683,160.11726 28.537958,167.647398 3.33121447,172.963319 L2.305,171.56339 C27.3023883,166.291592 50.888498,158.792542 73.6970026,151.540184 C116.760626,137.846747 161.291605,123.687 217.589469,123.687 C273.887333,123.687 318.418312,137.846747 361.483804,151.540184 C404.222179,165.130332 448.416694,179.182778 503.948169,179.182778 C559.477775,179.182778 603.67229,165.130332 646.410664,151.540184 C689.474287,137.846747 734.005266,123.687 790.305,123.687 L790.305,125.191222 C734.773525,125.191222 690.57901,139.243668 647.840635,152.833816 C604.777012,166.527253 560.246033,180.687 503.948169,180.687" id="Fill-25"></path>
                    <path d="M503.948169,170.687 C447.648435,170.687 403.117457,156.528007 360.053834,142.834328 C317.31359,129.243942 273.119074,115.191249 217.589469,115.191249 C162.059863,115.191249 117.865348,129.243942 75.1251043,142.833326 C52.2212683,150.115896 28.537958,157.647168 3.33121447,162.963184 L2.305,161.562227 C27.3023883,156.291339 50.888498,148.792157 73.6970026,141.539672 C116.760626,127.846996 161.291605,113.687 217.589469,113.687 C273.887333,113.687 318.418312,127.846996 361.483804,141.539672 C404.222179,155.130058 448.416694,169.182751 503.948169,169.182751 C559.477775,169.182751 603.67229,155.130058 646.410664,141.539672 C689.474287,127.846996 734.005266,113.687 790.305,113.687 L790.305,115.191249 C734.773525,115.191249 690.57901,129.243942 647.840635,142.834328 C604.777012,156.528007 560.246033,170.687 503.948169,170.687" id="Fill-26"></path>
                    <path d="M503.948169,160.687 C447.648435,160.687 403.117457,146.527253 360.053834,132.833816 C317.31359,119.243668 273.119074,105.191222 217.589469,105.191222 C162.059863,105.191222 117.865348,119.243668 75.1269736,132.832813 C52.2231376,140.116258 28.537958,147.646395 3.33121447,152.962317 L2.305,151.562387 C27.3023883,146.290589 50.888498,138.791539 73.6970026,131.539182 C116.760626,117.846747 161.291605,103.687 217.589469,103.687 C273.887333,103.687 318.418312,117.846747 361.483804,131.540184 C404.222179,145.130332 448.416694,159.182778 503.948169,159.182778 C559.477775,159.182778 603.67229,145.130332 646.410664,131.540184 C689.474287,117.846747 734.005266,103.687 790.305,103.687 L790.305,105.191222 C734.773525,105.191222 690.57901,119.243668 647.840635,132.833816 C604.777012,146.527253 560.246033,160.687 503.948169,160.687" id="Fill-27"></path>
                    <path d="M503.948169,150.687 C447.648435,150.687 403.117457,136.527253 360.053834,122.833816 C317.31359,109.243668 273.119074,95.1912224 217.589469,95.1912224 C162.059863,95.1912224 117.865348,109.243668 75.1251043,122.833816 C52.2212683,130.116258 28.537958,137.646395 3.33121447,142.962317 L2.305,141.562387 C27.3023883,136.291592 50.888498,128.791539 73.6951333,121.539182 C116.760626,107.846747 161.291605,93.687 217.589469,93.687 C273.887333,93.687 318.418312,107.846747 361.483804,121.540184 C404.222179,135.130332 448.416694,149.182778 503.948169,149.182778 C559.477775,149.182778 603.67229,135.130332 646.410664,121.540184 C689.474287,107.846747 734.005266,93.687 790.305,93.687 L790.305,95.1912224 C734.773525,95.1912224 690.57901,109.243668 647.840635,122.833816 C604.777012,136.527253 560.246033,150.687 503.948169,150.687" id="Fill-28"></path>
                    <path d="M503.948169,140.687 C447.648435,140.687 403.117457,126.528256 360.053834,112.833816 C317.31359,99.2446707 273.119074,85.1912224 217.589469,85.1912224 C162.059863,85.1912224 117.867218,99.2436678 75.1288428,112.832813 C52.2231376,120.116258 28.5398272,127.646395 3.33121447,132.962317 L2.305,131.562387 C27.3042575,126.290589 50.8903672,118.791539 73.6988718,111.539182 C116.762495,97.8467467 161.291605,83.687 217.589469,83.687 C273.887333,83.687 318.418312,97.8467467 361.483804,111.540184 C404.222179,125.130332 448.416694,139.182778 503.948169,139.182778 C559.477775,139.182778 603.67229,125.130332 646.410664,111.540184 C689.474287,97.8467467 734.005266,83.687 790.305,83.687 L790.305,85.1912224 C734.773525,85.1912224 690.57901,99.2446707 647.840635,112.833816 C604.777012,126.528256 560.246033,140.687 503.948169,140.687" id="Fill-29"></path>
                    <path d="M503.948169,130.687 C447.648435,130.687 403.117457,116.528007 360.053834,102.834328 C317.31359,89.2439415 273.119074,75.1912488 217.589469,75.1912488 C162.057994,75.1912488 117.865348,89.2439415 75.1251043,102.834328 C52.2212683,110.116898 28.537958,117.647168 3.33121447,122.963184 L2.305,121.563229 C27.3023883,116.291339 50.888498,108.792157 73.6951333,101.539672 C116.758756,87.8469958 161.289735,73.687 217.589469,73.687 C273.887333,73.687 318.418312,87.8469958 361.483804,101.539672 C404.222179,115.130058 448.416694,129.182751 503.948169,129.182751 C559.477775,129.182751 603.67229,115.130058 646.410664,101.539672 C689.474287,87.8469958 734.005266,73.687 790.305,73.687 L790.305,75.1912488 C734.773525,75.1912488 690.57901,89.2439415 647.840635,102.834328 C604.777012,116.528007 560.246033,130.687 503.948169,130.687" id="Fill-30"></path>
                    <path d="M503.948169,120.687 C447.648435,120.687 403.117457,106.528007 360.053834,92.8343284 C317.31359,79.2439415 273.119074,65.1912488 217.589469,65.1912488 C162.059863,65.1912488 117.865348,79.2439415 75.1269736,92.8333256 C52.2231376,100.116898 28.537958,107.647168 3.33121447,112.963184 L2.305,111.563229 C27.3023883,106.291339 50.888498,98.7921567 73.6970026,91.5396716 C116.760626,77.8469958 161.291605,63.687 217.589469,63.687 C273.887333,63.687 318.418312,77.8469958 361.483804,91.5396716 C404.222179,105.130058 448.416694,119.182751 503.948169,119.182751 C559.477775,119.182751 603.67229,105.130058 646.410664,91.5396716 C689.474287,77.8469958 734.005266,63.687 790.305,63.687 L790.305,65.1912488 C734.773525,65.1912488 690.57901,79.2439415 647.840635,92.8343284 C604.777012,106.528007 560.246033,120.687 503.948169,120.687" id="Fill-31"></path>
                    <path d="M503.948169,110.687 C447.648435,110.687 403.117457,96.5272533 360.053834,82.8338156 C317.31359,69.2436678 273.119074,55.1912224 217.589469,55.1912224 C162.059863,55.1912224 117.865348,69.2436678 75.1269736,82.8328128 C52.2231376,90.1162576 28.537958,97.6463948 3.33121447,102.962317 L2.305,101.562387 C27.3042575,96.2915918 50.888498,88.7915391 73.6970026,81.5391816 C116.760626,67.8467467 161.291605,53.687 217.589469,53.687 C273.887333,53.687 318.418312,67.8467467 361.483804,81.5401844 C404.222179,95.1303322 448.416694,109.182778 503.948169,109.182778 C559.477775,109.182778 603.67229,95.1303322 646.410664,81.5401844 C689.474287,67.8467467 734.005266,53.687 790.305,53.687 L790.305,55.1912224 C734.773525,55.1912224 690.57901,69.2436678 647.840635,82.8338156 C604.777012,96.5272533 560.246033,110.687 503.948169,110.687" id="Fill-32"></path>
                    <path d="M503.948169,100.687 C447.648435,100.687 403.117457,86.5272533 360.053834,72.8338156 C317.31359,59.2446707 273.119074,45.1912224 217.589469,45.1912224 C162.059863,45.1912224 117.865348,59.2436678 75.1269736,72.8338156 C52.2231376,80.1162576 28.537958,87.6473976 3.33121447,92.9633195 L2.305,91.5633899 C27.3023883,86.2915918 50.888498,78.7915391 73.6970026,71.5391816 C116.760626,57.8467467 161.291605,43.687 217.589469,43.687 C273.887333,43.687 318.418312,57.8467467 361.483804,71.5401844 C404.222179,85.1303322 448.416694,99.1827776 503.948169,99.1827776 C559.477775,99.1827776 603.67229,85.1303322 646.410664,71.5401844 C689.474287,57.8467467 734.005266,43.687 790.305,43.687 L790.305,45.1912224 C734.773525,45.1912224 690.57901,59.2446707 647.840635,72.8338156 C604.777012,86.5272533 560.246033,100.687 503.948169,100.687" id="Fill-33"></path>
                    <path d="M503.948169,90.687 C447.648435,90.687 403.117457,76.5282562 360.053834,62.8338156 C317.31359,49.2446707 273.119074,35.1912224 217.589469,35.1912224 C162.059863,35.1912224 117.865348,49.2446707 75.1251043,62.8338156 C52.2212683,70.1172604 28.537958,77.6473976 3.33121447,82.9633195 L2.305,81.5633899 C27.3023883,76.2915918 50.888498,68.7925419 73.6951333,61.5401844 C116.760626,47.8467467 161.291605,33.687 217.589469,33.687 C273.887333,33.687 318.418312,47.8467467 361.483804,61.5401844 C404.222179,75.1303322 448.416694,89.1827776 503.948169,89.1827776 C559.477775,89.1827776 603.67229,75.1303322 646.410664,61.5401844 C689.474287,47.8467467 734.005266,33.687 790.305,33.687 L790.305,35.1912224 C734.773525,35.1912224 690.57901,49.2446707 647.840635,62.8338156 C604.777012,76.5282562 560.246033,90.687 503.948169,90.687" id="Fill-34"></path>
                    <path d="M503.948169,80.687 C447.648435,80.687 403.117457,66.5280071 360.053834,52.8343284 C317.31359,39.2439415 273.119074,25.1912488 217.589469,25.1912488 C162.059863,25.1912488 117.865348,39.2439415 75.1269736,52.8333256 C52.2231376,60.1158957 28.537958,67.6471682 3.33121447,72.9631836 L2.305,71.5632293 C27.3023883,66.2913386 50.888498,58.7921567 73.6970026,51.5396716 C116.760626,37.8459929 161.291605,23.687 217.589469,23.687 C273.887333,23.687 318.418312,37.8459929 361.483804,51.5396716 C404.222179,65.1300585 448.416694,79.1827512 503.948169,79.1827512 C559.477775,79.1827512 603.67229,65.1300585 646.410664,51.5396716 C689.474287,37.8459929 734.005266,23.687 790.305,23.687 L790.305,25.1912488 C734.773525,25.1912488 690.57901,39.2439415 647.840635,52.8343284 C604.777012,66.5280071 560.246033,80.687 503.948169,80.687" id="Fill-35"></path>
                    <path d="M503.948169,70.687 C447.648435,70.687 403.117457,56.5272533 360.053834,42.8338156 C317.31359,29.2436678 273.119074,15.1912224 217.589469,15.1912224 C162.059863,15.1912224 117.865348,29.2436678 75.1269736,42.8328128 C52.2231376,50.1162576 28.537958,57.6463948 3.33121447,62.9623167 L2.305,61.5623871 C27.3042575,56.2915918 50.888498,48.7915391 73.6970026,41.5391816 C116.760626,27.8457438 161.291605,13.687 217.589469,13.687 C273.887333,13.687 318.418312,27.8467467 361.483804,41.5401844 C404.222179,55.1303322 448.416694,69.1827776 503.948169,69.1827776 C559.477775,69.1827776 603.67229,55.1303322 646.410664,41.5401844 C689.474287,27.8467467 734.005266,13.687 790.305,13.687 L790.305,15.1912224 C734.773525,15.1912224 690.57901,29.2436678 647.840635,42.8338156 C604.777012,56.5272533 560.246033,70.687 503.948169,70.687" id="Fill-36"></path>
                    <path d="M503.948169,60.687 C447.648435,60.687 403.117457,46.5282562 360.053834,32.8338156 C317.31359,19.2436678 273.119074,5.19122238 217.589469,5.19122238 C162.059863,5.19122238 117.865348,19.2436678 75.1269736,32.8338156 C52.2231376,40.1162576 28.537958,47.6473976 3.33121447,52.9633195 L2.305,51.5633899 C27.3023883,46.2915918 50.888498,38.7915391 73.6970026,31.5391816 C116.760626,17.8467467 161.291605,3.687 217.589469,3.687 C273.887333,3.687 318.418312,17.8467467 361.483804,31.5401844 C404.222179,45.1303322 448.416694,59.1827776 503.948169,59.1827776 C559.477775,59.1827776 603.67229,45.1303322 646.410664,31.5401844 C689.474287,17.8467467 734.005266,3.687 790.305,3.687 L790.305,5.19122238 C734.773525,5.19122238 690.57901,19.2436678 647.840635,32.8338156 C604.777012,46.5282562 560.246033,60.687 503.948169,60.687" id="Fill-37"></path>
                    <path d="M504.305936,49.687 C447.94615,49.687 403.367282,35.6363928 360.257285,22.0475053 C337.275516,14.8042779 313.515338,7.31526449 288.305,2.07713444 L289.326661,0.687 C314.748442,5.96891381 338.611535,13.48977 361.686863,20.763845 C404.473146,34.2502387 448.715203,48.1943718 504.305936,48.1943718 C559.892926,48.1943718 604.133112,34.2502387 646.915653,20.7648401 C669.994723,13.4907651 693.857815,5.96891381 719.283339,0.687 L720.305,2.07713444 C695.092791,7.31526449 671.32887,14.805273 648.347101,22.0485003 C605.238976,35.6363928 560.661979,49.687 504.305936,49.687" id="Fill-38"></path>
                    <path d="M1.33334223,42.687 L0.305,41.2745301 C25.3542178,35.9603269 48.9892309,28.3995181 71.8450266,21.0864222 C94.9462009,13.6964848 118.835958,6.05377901 144.28415,0.687 L145.305,2.09946991 C120.070343,7.4207506 96.2817346,15.0311021 73.2779625,22.3917183 C50.3247646,29.7341353 26.5923493,37.3272985 1.33334223,42.687" id="Fill-39"></path>
                    <path d="M503.805935,39.687 C447.482414,39.687 402.9341,25.6178653 359.851842,12.0110592 C349.241628,8.66017391 338.270509,5.19470292 327.305,1.99925569 L328.651379,0.687 C339.659897,3.8963968 350.651586,7.36784617 361.28237,10.7257062 C404.039252,24.228887 448.252842,38.1924035 503.805935,38.1924035 C559.357158,38.1924035 603.568878,24.228887 646.32576,10.7257062 C656.956544,7.36884257 667.950103,3.8963968 678.960491,0.687 L680.305,1.99925569 C669.337621,5.19470292 658.366502,8.66017391 647.756288,12.0110592 C604.674031,25.6178653 560.125716,39.687 503.805935,39.687" id="Fill-40"></path>
                    <path d="M1.33746753,32.687 L0.305,31.3094633 C25.4528249,26.1266908 49.1807718,18.7538618 72.1244947,11.6236054 C82.8177741,8.30055684 93.8758963,4.8641105 104.950944,1.687 L106.305,2.98565131 C95.2732067,6.14895687 84.2357714,9.57850073 73.563179,12.8956329 C50.5235438,20.0554713 26.6978039,27.4598545 1.33746753,32.687" id="Fill-41"></path>
                    <path d="M503.305,29.687 C446.965795,29.687 402.402116,15.5985775 359.305,1.97411509 L360.73415,0.687 C403.505779,14.207695 447.734618,28.1903546 503.305,28.1903546 C558.871641,28.1903546 603.096738,14.2096905 645.864626,0.688995527 L647.305,1.97411509 C604.202272,15.5995753 559.640464,29.687 503.305,29.687" id="Fill-42"></path>
                    <path d="M2.33377606,22.687 L1.305,21.3139496 C26.351668,16.1463227 49.9835348,8.79519165 72.8377292,1.687 L74.305,2.94497387 C51.3215058,10.0944751 27.5903219,17.4760965 2.33377606,22.687" id="Fill-43"></path>
                    <path d="M504.305,19.687 C459.662966,19.687 423.141564,10.7469989 393.305,2.00282268 L394.645697,0.687 C424.172726,9.34125672 460.291359,18.1883409 504.305,18.1883409 C548.316776,18.1883409 584.435409,9.34125672 613.964303,0.687 L615.305,2.00282268 C585.468436,10.7469989 548.945169,19.687 504.305,19.687" id="Fill-44"></path>
                </g>
            </g>
        </g>
    </g>
</svg>