<?xml version="1.0" encoding="UTF-8"?>
<svg width="216px" height="168px" viewBox="0 0 216 168" version="1.1" xmlns="http://www.w3.org/2000/svg" xmlns:xlink="http://www.w3.org/1999/xlink">
    <title>Shape Copy</title>
    <g id="GOLD" stroke="none" stroke-width="1" fill="none" fill-rule="evenodd" opacity="0.100000001">
        <g id="0.desktop" transform="translate(-958.000000, -1712.000000)" fill="#FFFFFF" fill-rule="nonzero">
            <g id="origin-area" transform="translate(-3.000000, 1712.000000)">
                <path d="M1134.81857,43.5826895 C1136.80728,42.2926482 1137.80501,41.6446938 1140.4856,41.6446938 C1143.1666,41.6446938 1144.16518,42.2922291 1146.15431,43.5826895 C1148.7463,45.2637666 1152.29552,47.5663938 1158.74301,47.5663938 C1165.19008,47.5663938 1168.7393,45.2637666 1171.33129,43.5826895 C1173.32042,42.2922291 1174.31857,41.6446938 1177,41.6446938 L1177,29.0711925 C1170.55293,29.0711925 1167.00371,31.3738197 1164.41172,33.0548968 C1162.42259,34.3453572 1161.42444,34.9928925 1158.74301,34.9928925 C1156.06158,34.9928925 1155.06301,34.3453572 1153.07387,33.0548968 C1150.48188,31.3738197 1146.93266,29.0711925 1140.4856,29.0711925 C1134.03895,29.0711925 1130.48973,31.3738197 1127.89816,33.0548968 C1125.90945,34.344938 1124.91172,34.9928925 1122.23114,34.9928925 C1119.55055,34.9928925 1118.5524,34.3453572 1116.56327,33.0548968 C1114.9593,32.01423 1112.98705,30.7371814 1110.1896,29.9136171 C1094.6672,11.6338417 1071.45362,0 1045.55228,0 C998.930211,0 961,37.6823644 961,84.0002096 C961,130.318055 998.930211,168 1045.55228,168 C1072.31888,168 1096.21716,155.576542 1111.72058,136.23263 C1114.12231,137.605656 1117.34247,138.929227 1122.23071,138.929227 C1128.67736,138.929227 1132.22658,136.626599 1134.81815,134.945522 C1136.80686,133.655481 1137.80459,133.007527 1140.48517,133.007527 C1143.16618,133.007527 1144.16475,133.655062 1146.15389,134.945522 C1148.74588,136.626599 1152.2951,138.929227 1158.74259,138.929227 C1165.18966,138.929227 1168.73888,136.626599 1171.33087,134.945522 C1173.32,133.655062 1174.31815,133.007527 1177,133.007527 L1177,120.434025 C1170.55251,120.434025 1167.00329,122.736653 1164.4113,124.41773 C1162.42217,125.70819 1161.42401,126.355725 1158.74259,126.355725 C1156.06116,126.355725 1155.06259,125.70819 1153.07345,124.41773 C1150.48146,122.736653 1146.93224,120.434025 1140.48517,120.434025 C1134.03853,120.434025 1130.48931,122.736653 1127.89774,124.41773 C1125.90903,125.707771 1124.9113,126.355725 1122.23071,126.355725 C1120.75753,126.355725 1119.79271,126.15874 1118.89201,125.768543 C1122.09487,120.239555 1124.67674,114.313245 1126.55576,108.088523 C1130.39312,107.361775 1132.875,105.751948 1134.81773,104.491245 C1136.80644,103.201203 1137.80417,102.553249 1140.48475,102.553249 C1143.16576,102.553249 1144.16433,103.200784 1146.15346,104.491245 C1148.74545,106.172322 1152.29467,108.474949 1158.74217,108.474949 C1165.18923,108.474949 1168.73845,106.172322 1171.33044,104.491245 C1173.31958,103.200784 1174.31773,102.553249 1177,102.553249 L1177,89.9797477 C1170.55209,89.9797477 1167.00287,92.2823749 1164.41088,93.963452 C1162.42174,95.2539124 1161.42359,95.9014477 1158.74217,95.9014477 C1156.06074,95.9014477 1155.06216,95.2539124 1153.07303,93.963452 C1150.48104,92.2823749 1146.93182,89.9797477 1140.48475,89.9797477 C1135.36026,89.9797477 1132.06964,91.4349209 1129.63248,92.8762633 C1129.94214,89.9587918 1130.10456,86.9981514 1130.10456,84.0002096 C1130.10456,81.5496341 1129.99192,79.125044 1129.78393,76.7268581 C1131.89119,75.9309555 1133.48376,74.9024431 1134.81815,74.036548 C1136.80686,72.7465067 1137.80459,72.0985523 1140.48517,72.0985523 C1143.16618,72.0985523 1144.16475,72.7460876 1146.15389,74.036548 C1148.74588,75.7176251 1152.2951,78.0202523 1158.74259,78.0202523 C1165.18966,78.0202523 1168.73888,75.7176251 1171.33087,74.036548 C1173.32,72.7460876 1174.31815,72.0985523 1177,72.0985523 L1177,59.525051 C1170.55251,59.525051 1167.00329,61.8276782 1164.4113,63.5087553 C1162.42217,64.7992157 1161.42401,65.446751 1158.74259,65.446751 C1156.06116,65.446751 1155.06259,64.7992157 1153.07345,63.5087553 C1150.48146,61.8276782 1146.93224,59.525051 1140.48517,59.525051 C1134.03853,59.525051 1130.48931,61.8276782 1127.89774,63.5087553 C1127.79649,63.5745566 1127.69946,63.6374241 1127.60285,63.6998725 C1126.1921,58.074488 1124.21436,52.6703971 1121.72447,47.5546586 C1121.89406,47.5580115 1122.05732,47.5659747 1122.23114,47.5659747 C1128.67778,47.5668129 1132.227,45.2637666 1134.81857,43.5826895 Z M1098.38744,43.9019243 C1100.19478,42.7212911 1101.17067,42.0869025 1103.39559,42 C1107.83551,48.0111732 1111.34299,54.7490172 1113.70698,62 C1111.41252,60.7597765 1108.37933,59.6428719 1103.94644,59.6428719 C1103.93651,59.6428719 1103.92699,59.6436996 1103.91706,59.6436996 C1101.77118,54.5764535 1098.97016,49.8518519 1095.62326,45.5737637 C1096.67902,45.0159321 1097.58124,44.4287192 1098.38744,43.9019243 Z M1046.00351,156 C1006.33417,156 974.060465,123.925555 974.060465,84.4997902 C974.060465,45.0740253 1006.33417,13 1046.00351,13 C1064.72962,13 1081.80554,20.1499371 1094.6186,31.8439986 C1093.57168,32.398641 1092.67419,32.9805541 1091.86999,33.5024718 C1089.87998,34.7938406 1088.8816,35.4424618 1086.19927,35.4424618 C1086.04814,35.4424618 1085.90376,35.4395249 1085.76276,35.435749 C1074.87892,26.7070528 1061.04594,21.4719328 1046.00351,21.4719328 C1011.03438,21.4719328 982.584497,49.7465314 982.584497,84.5002098 C982.584497,119.253888 1011.03438,147.528487 1046.00351,147.528487 C1058.07486,147.528487 1069.36861,144.157838 1078.98432,138.315632 C1080.90805,139.000334 1083.2476,139.485332 1086.19927,139.485332 C1089.06524,139.485332 1091.35666,139.029283 1093.24873,138.376047 C1080.6003,149.345549 1064.0698,156 1046.00351,156 Z M1091.74172,94.4854153 C1089.75247,95.7782731 1088.75447,96.4276422 1086.07316,96.4276422 C1083.39186,96.4276422 1082.39386,95.7786932 1080.40461,94.4854153 C1077.81234,92.8002479 1074.26259,90.4930133 1067.8142,90.4930133 L1067.8142,103.093967 C1070.49509,103.093967 1071.49351,103.742916 1073.48233,105.036193 C1076.0746,106.720941 1079.62436,109.028595 1086.07316,109.028595 C1087.70921,109.028595 1089.15705,108.879064 1090.45128,108.629985 C1087.30326,114.366359 1083.06988,119.430682 1078.02756,123.549094 C1075.65852,122.234394 1072.50543,121.012942 1067.81505,121.012942 L1067.81505,130.037745 C1061.17592,133.216965 1053.74009,135 1045.89323,135 C1017.91802,135 995.15814,112.345586 995.15814,84.5 C995.15814,56.6544137 1017.91802,34 1045.89323,34 C1053.74009,34 1061.17592,35.7830349 1067.81505,38.9622554 L1067.81505,42.0524291 C1070.49593,42.0524291 1071.49435,42.7013782 1073.48318,43.994656 C1075.12513,45.0619568 1077.15447,46.3774963 1080.05858,47.1994985 C1085.12833,51.8043068 1089.26001,57.4159313 1092.1291,63.7138877 C1091.99829,63.7983141 1091.86831,63.8827404 1091.74214,63.9646466 C1089.75289,65.2575044 1088.75489,65.9068735 1086.07359,65.9068735 C1083.39228,65.9068735 1082.39428,65.2579245 1080.40503,63.9646466 C1077.81277,62.2794792 1074.26301,59.9722446 1067.81462,59.9722446 L1067.81462,72.5731978 C1070.49551,72.5731978 1071.49393,73.2221469 1073.48276,74.5154247 C1076.07502,76.2001722 1079.62478,78.5078267 1086.07359,78.5078267 C1090.5323,78.5078267 1093.60437,77.4044033 1095.93332,76.1665696 C1096.3878,78.8787148 1096.62791,81.6618453 1096.62791,84.50042 C1096.62791,87.0756348 1096.4321,89.6063263 1096.05654,92.0786333 C1094.30023,92.8267099 1092.91991,93.7192774 1091.74172,94.4854153 Z M1107.40453,120.841728 C1106.42966,120.705608 1105.37328,120.62711 1104.21975,120.62711 C1101.05267,120.62711 1098.60316,121.208751 1096.62791,122 C1100.83777,116.332652 1104.12465,109.922908 1106.25675,103 C1107.53174,103.27558 1108.41109,103.857639 1109.75029,104.744088 C1110.84331,105.468113 1112.11212,106.306962 1113.70698,107.026811 C1112.0903,111.887043 1109.96684,116.512614 1107.40453,120.841728 Z M1117.04128,94 C1116.98821,93.9640754 1116.93675,93.929404 1116.88207,93.8922263 C1115.08005,92.6695377 1112.78671,91.1210216 1109.29485,90.3712007 C1109.5015,88.2633474 1109.60765,86.1254177 1109.60765,83.9620067 C1109.60765,80.223345 1109.29002,76.560292 1108.68372,73 C1109.17745,73.2794597 1109.68484,73.6228318 1110.28793,74.0317871 C1112.01356,75.2026774 1114.18909,76.6734962 1117.43731,77.4550644 C1117.62426,79.5984246 1117.72558,81.7676838 1117.72558,83.961589 C1117.72558,87.368575 1117.48877,90.71875 1117.04128,94 Z" id="Shape-Copy"></path>
            </g>
        </g>
    </g>
</svg>