<?xml version="1.0" encoding="UTF-8"?>
<svg width="710px" height="95px" viewBox="0 0 710 95" version="1.1" xmlns="http://www.w3.org/2000/svg" xmlns:xlink="http://www.w3.org/1999/xlink">
    <title>passport-letters</title>
    <g id="GOLD" stroke="none" stroke-width="1" fill="none" fill-rule="evenodd">
        <g id="0.desktop" transform="translate(-350.000000, -13.000000)" fill="#FFFFFF" fill-rule="nonzero">
            <g id="header" transform="translate(126.000000, 13.000000)">
                <g id="passport-letters" transform="translate(224.000000, 0.000000)">
                    <path d="M39.3084053,3 C59.5406728,3 73.1029619,15.65625 73.1029619,34.8164062 C73.1029619,54.1962891 59.1849406,66.28125 38.4190749,66.28125 L38.4190749,66.28125 L24.7233861,66.28125 L24.7233861,93 L0,93 L0,3 Z M32.9858728,22 L24.367654,22 L24.367654,47 L32.9858728,47 C41.5601211,47 46.7046701,42.1684397 46.7046701,34.4113475 C46.7046701,26.6099291 41.5601211,22 32.9858728,22 L32.9858728,22 Z" id="Combined-Shape"></path>
                    <path d="M136.785459,3 L167.235543,93 L140.208841,93 L134.893589,75.7734375 L104.443505,75.7734375 L99.1282536,93 L72.1015515,93 L102.551636,3 L136.785459,3 Z M119.50449,28 L118.809659,28 L109.950559,57 L128.363589,57 L119.50449,28 Z" id="Combined-Shape"></path>
                    <path d="M214.206736,94.8656294 C237.22517,94.8656294 251.01849,85.0522961 251.107193,67.3532485 C251.01849,53.684677 242.769109,44.0903913 222.722226,39.8408675 L215.271172,38.2637247 C206.666979,36.4675342 202.808398,33.9703913 203.030155,29.677058 C203.074507,25.7342008 206.40087,22.8427723 214.02933,22.8427723 C222.012602,22.8427723 225.78248,26.3037247 226.270347,32.1303913 L249.865351,32.1303913 C249.776648,14.5189628 236.027679,2.86562942 214.02933,2.86562942 C192.430144,2.86562942 177.173224,14.3437247 177.306279,31.4294389 C177.261927,45.4484866 187.107963,53.2465818 203.207561,56.6637247 L212.255269,58.5913437 C222.367414,60.7818199 225.826832,63.2789628 225.915535,67.3532485 C225.826832,71.7780104 221.746493,74.8884866 213.851924,74.8884866 C204.405052,74.8884866 198.816762,70.5075342 198.417598,62.2713437 L175,62.2713437 C175.088703,84.7894389 190.523029,94.8656294 214.206736,94.8656294 Z" id="Path"></path>
                    <path d="M301.206736,94.8656294 C324.22517,94.8656294 338.01849,85.0522961 338.107193,67.3532485 C338.01849,53.684677 329.769109,44.0903913 309.722226,39.8408675 L302.271172,38.2637247 C293.666979,36.4675342 289.808398,33.9703913 290.030155,29.677058 C290.074507,25.7342008 293.40087,22.8427723 301.02933,22.8427723 C309.012602,22.8427723 312.78248,26.3037247 313.270347,32.1303913 L336.865351,32.1303913 C336.776648,14.5189628 323.027679,2.86562942 301.02933,2.86562942 C279.430144,2.86562942 264.173224,14.3437247 264.306279,31.4294389 C264.261927,45.4484866 274.107963,53.2465818 290.207561,56.6637247 L299.255269,58.5913437 C309.367414,60.7818199 312.826832,63.2789628 312.915535,67.3532485 C312.826832,71.7780104 308.746493,74.8884866 300.851924,74.8884866 C291.405052,74.8884866 285.816762,70.5075342 285.417598,62.2713437 L262,62.2713437 C262.088703,84.7894389 277.523029,94.8656294 301.206736,94.8656294 Z" id="Path"></path>
                    <path d="M391.308405,4.86562942 C411.540673,4.86562942 425.102962,17.5218794 425.102962,36.6820357 C425.102962,56.0619185 411.184941,68.1468794 390.419075,68.1468794 L390.419075,68.1468794 L376.723386,68.1468794 L376.723386,94.8656294 L352,94.8656294 L352,4.86562942 Z M386.001192,23.8656294 L377.382973,23.8656294 L377.382973,48.8656294 L386.001192,48.8656294 C394.57544,48.8656294 399.719989,44.0340691 399.719989,36.2769769 C399.719989,28.4755585 394.57544,23.8656294 386.001192,23.8656294 L386.001192,23.8656294 Z" id="Combined-Shape"></path>
                    <path d="M483.06347,2.86562942 C508.219382,2.86562942 528.126939,18.9568842 528.126939,48.8656294 C528.126939,78.7743747 508.219382,94.8656294 483.06347,94.8656294 C457.726579,94.8656294 438,78.5994697 438,48.8656294 C438,18.9568842 457.726579,2.86562942 483.06347,2.86562942 Z M484.087639,24.8656294 C472.087462,24.8656294 465.652584,33.49239 465.652584,49.3656294 C465.652584,65.2388689 472.087462,73.8656294 484.087639,73.8656294 C496.087817,73.8656294 502.522695,65.2388689 502.522695,49.3656294 C502.522695,33.49239 496.087817,24.8656294 484.087639,24.8656294 Z" id="Combined-Shape"></path>
                    <path d="M583.064208,3 C603.291295,3 616.850111,14.4257812 616.850111,33.5859375 C616.850111,46.0664062 611.070944,54.8115234 601.379724,59.4257812 L601.379724,59.4257812 L619.873061,93 L593.022158,93 L577.018309,63.2929688 L568.482923,63.2929688 L568.482923,93 L543.765867,93 L543.765867,3 Z M578.763191,22 L570.149694,22 L570.149694,43 L578.763191,43 C587.332741,43 592.474471,40.078629 592.474471,32.6693548 C592.474471,25.2177419 587.332741,22 578.763191,22 L578.763191,22 Z" id="Combined-Shape"></path>
                    <polygon id="Path" points="682.622114 93 682.622114 22.6875 710 22.6875 710 3 630.888575 3 630.888575 22.6875 658.266462 22.6875 658.266462 93"></polygon>
                </g>
            </g>
        </g>
    </g>
</svg>